<svg width="40" height="40" viewBox="0 0 40 40" fill="none" xmlns="http://www.w3.org/2000/svg">
<path d="M39.4014 24.8382C36.7298 35.5525 25.8768 42.0731 15.16 39.4012C4.44764 36.73 -2.07368 25.8776 0.599102 15.164C3.26939 4.44845 14.1224 -2.07273 24.8361 0.598491C35.5522 3.26971 42.0729 14.1234 39.4014 24.8382Z" fill="#FEFEFF"/>
<ellipse cx="20.0884" cy="11.854" rx="3.85401" ry="3.85401" fill="#11233C"/>
<circle cx="11.5912" cy="23.5034" r="3.59124" fill="#11233C"/>
<circle cx="26.0438" cy="27.0946" r="4.90511" fill="#11233C"/>
<path d="M16.5808 16.1252C16.7649 15.8867 17.1074 15.8426 17.3459 16.0266C17.5844 16.2106 17.6286 16.5531 17.4446 16.7916L15.2272 19.6656C15.0431 19.9041 14.7006 19.9483 14.4621 19.7643C14.2236 19.5803 14.1794 19.2377 14.3635 18.9992L16.5808 16.1252Z" fill="#11233C"/>
<rect x="21.2969" y="16.5859" width="1.09091" height="4.81578" rx="0.545454" transform="rotate(-21.1557 21.2969 16.5859)" fill="#11233C"/>
<path d="M16.3252 24.9508C16.0356 24.868 15.868 24.566 15.9508 24.2764C16.0337 23.9868 16.3357 23.8191 16.6253 23.902L20.2065 24.9268C20.4961 25.0096 20.6637 25.3116 20.5808 25.6012C20.4979 25.8908 20.196 26.0585 19.9063 25.9756L16.3252 24.9508Z" fill="#11233C"/>
</svg>
