<svg width="24" height="24" viewBox="0 0 24 24" fill="none" xmlns="http://www.w3.org/2000/svg">
<path fill-rule="evenodd" clip-rule="evenodd" d="M7.74328 6.08634C8.00158 5.83782 8.00158 5.4349 7.74328 5.18639C7.48498 4.93787 7.0662 4.93787 6.8079 5.18639L0.197182 11.5467C0.18458 11.5586 0.172458 11.5711 0.160849 11.584C0.0410261 11.7172 -0.0118511 11.8868 0.00221732 12.0522C0.0137687 12.188 0.0704537 12.3209 0.172272 12.4284C0.18152 12.4381 0.191122 12.4477 0.201074 12.4569C0.207274 12.4627 0.213562 12.4684 0.219935 12.4739L7.48692 18.8344C7.75713 19.0709 8.17545 19.0518 8.42126 18.7919C8.66708 18.5319 8.6473 18.1294 8.37709 17.8929L2.37137 12.6364H23.3386C23.7039 12.6364 24 12.3515 24 12C24 11.6485 23.7039 11.3636 23.3386 11.3636H2.25822L7.74328 6.08634Z" fill="#C4DEFF" />
</svg>
