<svg width="20" height="20" viewBox="0 0 20 20" fill="none" xmlns="http://www.w3.org/2000/svg">
<g clip-path="url(#clip0_3591_35104)">
<path d="M19.7008 12.3742C18.365 17.7314 12.9385 20.9917 7.58005 19.6558C2.22383 18.3201 -1.03685 12.8939 0.299552 7.53709C1.6347 2.17931 7.06124 -1.08129 12.4181 0.254325C17.7762 1.58994 21.0366 7.01678 19.7008 12.3742Z" fill="#354D70"/>
<path d="M14.4087 8.53036C14.6077 7.19974 13.5945 6.48443 12.209 6.00725L12.6585 4.20476L11.5612 3.93132L11.1236 5.68631C10.8351 5.61444 10.5389 5.54663 10.2444 5.47944L10.6851 3.71289L9.58844 3.43945L9.1387 5.24132C8.89992 5.18694 8.66552 5.13319 8.438 5.07663L8.43925 5.071L6.92595 4.69319L6.63404 5.86506C6.63404 5.86506 7.4482 6.05162 7.43101 6.06319C7.87543 6.17412 7.95575 6.46818 7.94232 6.70131L7.43038 8.75473C7.46101 8.76254 7.5007 8.77379 7.54446 8.79129C7.50789 8.78223 7.46882 8.77223 7.42851 8.76254L6.71093 11.6391C6.65655 11.7741 6.51872 11.9766 6.20806 11.8997C6.219 11.9156 5.41047 11.7006 5.41047 11.7006L4.86572 12.9566L6.29369 13.3125C6.55935 13.3791 6.81969 13.4488 7.07597 13.5144L6.62186 15.3375L7.71792 15.6109L8.16765 13.8072C8.46706 13.8884 8.75772 13.9634 9.04213 14.0341L8.59395 15.8294L9.69126 16.1028L10.1454 14.2831C12.0165 14.6372 13.4236 14.4944 14.0158 12.8022C14.493 11.4397 13.9921 10.6538 13.0076 10.1413C13.7245 9.97597 14.2646 9.50441 14.4087 8.53036ZM11.9015 12.0456C11.5624 13.4081 9.26809 12.6716 8.52426 12.4869L9.12682 10.0716C9.87066 10.2572 12.2559 10.6247 11.9015 12.0456ZM12.2409 8.51067C11.9315 9.75004 10.0219 9.12035 9.40248 8.96598L9.94879 6.77537C10.5682 6.92974 12.5631 7.21787 12.2409 8.51067Z" fill="#C4DEFF" fill-opacity="0.5"/>
</g>
<defs>
<clipPath id="clip0_3591_35104">
<path d="M0 8C0 3.58172 3.58172 0 8 0H12C16.4183 0 20 3.58172 20 8V12C20 16.4183 16.4183 20 12 20H8C3.58172 20 0 16.4183 0 12V8Z" fill="white"/>
</clipPath>
</defs>
</svg>
