<svg width="40" height="40" viewBox="0 0 40 40" fill="none" xmlns="http://www.w3.org/2000/svg">
<path d="M24.7284 15.3223C24.3521 14.946 23.707 14.946 23.277 15.3223L20.1053 18.4943L16.9336 15.3223C16.5573 14.946 15.9122 14.946 15.4822 15.3223C15.1059 15.6986 15.1059 16.3438 15.4822 16.7739L18.6539 19.9459L15.4822 23.118C15.1059 23.4943 15.1059 24.1395 15.4822 24.5696C15.6972 24.7847 15.966 24.8922 16.181 24.8922C16.396 24.8922 16.7186 24.7847 16.8799 24.5696L20.0516 21.3976L23.2232 24.5696C23.4383 24.7847 23.707 24.8922 23.9221 24.8922C24.1371 24.8922 24.4597 24.7847 24.6209 24.5696C24.9972 24.1933 24.9972 23.5481 24.6209 23.118L21.4492 19.9459L24.6209 16.7739C25.1585 16.3438 25.1585 15.6986 24.7284 15.3223Z" fill="#C4DEFF" fill-opacity="0.5"/>
<circle cx="20" cy="20" r="19.5" stroke="#C4DEFF" stroke-opacity="0.2"/>
</svg>
