<svg width="24" height="24" viewBox="0 0 24 24" fill="none" xmlns="http://www.w3.org/2000/svg">
<path fill-rule="evenodd" clip-rule="evenodd" d="M20.7807 4.27763C21.073 3.98535 21.073 3.51148 20.7807 3.21921C20.4884 2.92693 20.0145 2.92693 19.7223 3.21921L12 10.9415L4.27774 3.21921C3.98547 2.92693 3.5116 2.92693 3.21932 3.21921C2.92705 3.51148 2.92705 3.98535 3.21932 4.27763L10.9416 11.9999L3.21921 19.7224C2.92693 20.0146 2.92693 20.4885 3.21921 20.7808C3.51148 21.0731 3.98535 21.0731 4.27762 20.7808L12 13.0584L19.7224 20.7808C20.0147 21.0731 20.4885 21.0731 20.7808 20.7808C21.0731 20.4885 21.0731 20.0146 20.7808 19.7224L13.0584 11.9999L20.7807 4.27763Z" fill="#C4DEFF" fill-opacity="0.5"/>
</svg>
