<svg width="24" height="24" viewBox="0 0 24 24" fill="none" xmlns="http://www.w3.org/2000/svg">
<path fill-rule="evenodd" clip-rule="evenodd" d="M15.299 4H4.82471V16.1236C4.82471 16.4425 5.08318 16.7011 5.40203 16.7011C5.72088 16.7011 5.97935 16.4425 5.97935 16.1236V5.15465H15.299C15.6178 5.15465 15.8763 4.89617 15.8763 4.57732C15.8763 4.25848 15.6178 4 15.299 4ZM5.40203 16.1238C4.82471 16.1238 4.82471 16.1237 4.82471 16.1236L5.40203 16.1238ZM5.97935 16.1236C5.97935 16.1237 5.97935 16.1238 5.40203 16.1238L5.97935 16.1236ZM8.70064 7.29894C8.3818 7.29894 8.12332 7.55741 8.12332 7.87626V19.4227C8.12332 19.7416 8.3818 20 8.70064 20H18.5976C18.9165 20 19.1749 19.7416 19.1749 19.4227V7.87626C19.1749 7.55741 18.9165 7.29894 18.5976 7.29894H8.70064ZM9.27797 18.8454V8.45358H18.0203V18.8454H9.27797Z" fill="#FFFFFF" />
</svg>
