<svg width="24" height="24" viewBox="0 0 24 24" fill="none" xmlns="http://www.w3.org/2000/svg">
<path fill-rule="evenodd" clip-rule="evenodd" d="M20.3536 4.35355C20.5488 4.15829 20.5488 3.84171 20.3536 3.64645C20.1583 3.45118 19.8417 3.45118 19.6464 3.64645L16.2929 7H14.5C14.2239 7 14 7.20351 14 7.45455C14 7.70558 14.2242 7.90909 14.5004 7.90909H15.3838L11.7929 11.5H8C7.72386 11.5 7.5 11.7239 7.5 12C7.5 12.2761 7.72386 12.5 8 12.5H10.7929L7.21032 16.0826C4.86003 15.9468 3 14.1709 3 12C3 9.74065 5.01508 7.90909 7.50036 7.90909H9.49998C9.77612 7.90909 10 7.70558 10 7.45455C10 7.20351 9.77578 7 9.49964 7H7.5C4.46243 7 2 9.23858 2 12C2 14.417 3.88653 16.4335 6.39402 16.8989L2.64645 20.6464C2.45118 20.8417 2.45118 21.1583 2.64645 21.3536C2.84171 21.5488 3.15829 21.5488 3.35355 21.3536L7.70711 17H9.49998C9.77612 17 10 16.7965 10 16.5455C10 16.2944 9.77578 16.0909 9.49964 16.0909H8.6162L12.2071 12.5H16C16.2761 12.5 16.5 12.2761 16.5 12C16.5 11.7239 16.2761 11.5 16 11.5H13.2071L16.7897 7.91743C19.14 8.05318 21 9.82912 21 12C21 14.2593 18.9849 16.0909 16.4996 16.0909H14.5C14.2239 16.0909 14 16.2944 14 16.5455C14 16.7965 14.2242 17 14.5004 17H16.5C19.5376 17 22 14.7614 22 12C22 9.58296 20.1135 7.56649 17.606 7.10113L20.3536 4.35355Z" fill="#C4DEFF" fill-opacity="0.5"/>
</svg>
