<svg width="20" height="20" viewBox="0 0 20 20" fill="none" xmlns="http://www.w3.org/2000/svg">
<path d="M9.64296 19.7326L3.57153 11.1719L9.64296 14.754V19.7326Z" fill="#354D70"/>
<path d="M9.59296 14.7826V19.5757L3.74773 11.3339L9.59296 14.7826Z" stroke="#C4DEFF" stroke-opacity="0.5" stroke-width="0.1"/>
<path d="M9.64293 19.7326L15.7144 11.1719L9.64293 14.754V19.7326Z" fill="#354D70"/>
<path d="M9.69293 14.7826V19.5757L15.5382 11.3339L9.69293 14.7826Z" stroke="#C4DEFF" stroke-opacity="0.5" stroke-width="0.1"/>
<path d="M9.64293 7.14258L15.7144 10.0176L9.64293 13.539V7.14258Z" fill="#354D70"/>
<path d="M9.69293 13.4522L15.607 10.022L9.69293 7.22158V13.4522Z" stroke="#C4DEFF" stroke-opacity="0.5" stroke-width="0.1"/>
<path d="M9.64296 7.14258L3.57153 10.0176L9.64296 13.539V7.14258Z" fill="#354D70"/>
<path d="M9.59296 13.4522L3.67891 10.022L9.59296 7.22158V13.4522Z" stroke="#C4DEFF" stroke-opacity="0.5" stroke-width="0.1"/>
<path d="M15.7145 10.0179L9.64307 0V7.225L15.7145 10.0179Z" fill="#354D70"/>
<path d="M9.69307 7.19296V0.178969L15.5872 9.90426L9.69307 7.19296Z" stroke="#C4DEFF" stroke-opacity="0.5" stroke-width="0.1"/>
<path d="M3.57164 10.0179L9.64307 0V7.225L3.57164 10.0179Z" fill="#354D70"/>
<path d="M9.59307 7.19296V0.178969L3.69895 9.90426L9.59307 7.19296Z" stroke="#C4DEFF" stroke-opacity="0.5" stroke-width="0.1"/>
</svg>
