<svg width="20" height="20" viewBox="0 0 20 20" fill="none" xmlns="http://www.w3.org/2000/svg">
<path fill-rule="evenodd" clip-rule="evenodd" d="M2.14645 7.14652C1.95118 7.34178 1.95118 7.65837 2.14645 7.85363C2.34171 8.04889 2.65829 8.04889 2.85355 7.85363L4.5 6.20718L4.5 15.0001V15.5001H5H10.8333C11.1095 15.5001 11.3333 15.2762 11.3333 15.0001C11.3333 14.7239 11.1095 14.5001 10.8333 14.5001H5.5V6.20718L7.14645 7.85363C7.34171 8.04889 7.65829 8.04889 7.85355 7.85363C8.04882 7.65837 8.04882 7.34178 7.85355 7.14652L5.35355 4.64652L5 4.29297L4.64645 4.64652L2.14645 7.14652ZM15.5 4.50008V5.00008L15.5 13.793L17.1464 12.1465C17.3417 11.9513 17.6583 11.9513 17.8536 12.1465C18.0488 12.3418 18.0488 12.6584 17.8536 12.8536L15.3536 15.3536L15 15.7072L14.6464 15.3536L12.1464 12.8536C11.9512 12.6584 11.9512 12.3418 12.1464 12.1465C12.3417 11.9513 12.6583 11.9513 12.8536 12.1465L14.5 13.793L14.5 5.50008L9.16667 5.50008C8.89052 5.50008 8.66667 5.27622 8.66667 5.00008C8.66667 4.72393 8.89052 4.50008 9.16667 4.50008L15 4.50008L15.5 4.50008Z" fill="#0D1421"/>
</svg>
