<svg width="16" height="16" viewBox="0 0 16 16" fill="none" xmlns="http://www.w3.org/2000/svg">
<path d="M1.4837 11.0323C1.56971 11.2258 1.4837 11.4839 1.29018 11.5699C1.22567 11.5914 1.18266 11.6129 1.11815 11.6129C0.967631 11.6129 0.817111 11.5269 0.752603 11.3763C0.666591 11.1828 0.752601 10.9247 0.946128 10.8387C1.16116 10.7527 1.39769 10.8387 1.4837 11.0323ZM1.72023 3.72043C1.78474 3.78495 1.87075 3.80645 1.95676 3.80645C2.08578 3.80645 2.1933 3.74194 2.27931 3.65591C2.40833 3.48387 2.38683 3.2258 2.1933 3.09677C2.02128 2.96774 1.76324 2.98925 1.61272 3.1828C1.50521 3.33333 1.54821 3.5914 1.72023 3.72043ZM1.72023 12.3011C1.54821 12.4301 1.5052 12.6882 1.63422 12.8602C1.72023 12.9677 1.82775 13.0107 1.95676 13.0107C2.04278 13.0107 2.12879 12.9892 2.1933 12.9247C2.36532 12.7957 2.40833 12.5376 2.27931 12.3656C2.15029 12.1935 1.91376 12.1505 1.72023 12.3011ZM4.66614 14.3656C4.47261 14.2581 4.21457 14.3441 4.10706 14.5376C3.99954 14.7312 4.08556 14.9892 4.27908 15.0968C4.34359 15.1398 4.4081 15.1398 4.47261 15.1398C4.62313 15.1398 4.75215 15.0538 4.83816 14.9247C4.92417 14.7097 4.85966 14.4731 4.66614 14.3656ZM0.989133 9.56989C0.946127 9.35483 0.7311 9.2043 0.494568 9.26881C0.279539 9.31182 0.129016 9.52688 0.193525 9.76344C0.236531 9.95699 0.408555 10.086 0.580579 10.086C0.602081 10.086 0.645086 10.086 0.666589 10.086C0.903121 10 1.03214 9.78494 0.989133 9.56989ZM4.45111 1.67742C4.51562 1.67742 4.58012 1.65591 4.64463 1.63441C4.83816 1.52688 4.92417 1.29032 4.81666 1.07527C4.70914 0.88172 4.47261 0.795698 4.25758 0.903225C4.06405 1.01075 3.97804 1.24731 4.08556 1.46237C4.17157 1.6129 4.30059 1.67742 4.45111 1.67742ZM2.79538 13.5484C2.64486 13.7204 2.66636 13.9785 2.83839 14.129C2.9244 14.1935 3.01041 14.215 3.09642 14.215C3.20394 14.215 3.33296 14.172 3.39746 14.0645C3.54798 13.8925 3.52648 13.6344 3.35446 13.4839C3.20393 13.3548 2.9459 13.3763 2.79538 13.5484ZM3.09642 2.60215C3.18243 2.60215 3.28995 2.58064 3.35446 2.51613C3.52648 2.36559 3.54798 2.10753 3.39746 1.93548C3.24694 1.76344 2.98891 1.74194 2.81688 1.89247C2.64486 2.04301 2.62336 2.30107 2.77388 2.47312C2.85989 2.55914 2.98891 2.60215 3.09642 2.60215ZM14.837 5.69892C14.9015 5.87097 15.0521 5.97849 15.2241 5.97849C15.2671 5.97849 15.3101 5.97849 15.3531 5.95699C15.5681 5.89247 15.6756 5.65591 15.6111 5.44086C15.5466 5.22581 15.3101 5.11828 15.0951 5.18279C14.88 5.24731 14.7725 5.48387 14.837 5.69892ZM15.5466 6.77419C15.3316 6.7957 15.1596 6.98924 15.1811 7.2258C15.2026 7.44086 15.3746 7.5914 15.5896 7.5914C15.6111 7.5914 15.6111 7.5914 15.6326 7.5914C15.8477 7.56989 16.0197 7.37634 15.9982 7.13978C15.9552 6.90322 15.7616 6.73118 15.5466 6.77419ZM9.18175 0.903225C9.20325 0.903225 9.22476 0.903225 9.24626 0.903225C9.43979 0.903225 9.61181 0.752686 9.65482 0.559138C9.69782 0.344084 9.5473 0.129031 9.31077 0.0860202C9.09574 0.0430094 8.88071 0.193548 8.8377 0.430107C8.8162 0.645161 8.96672 0.860214 9.18175 0.903225ZM0.494568 6.75269C0.516071 6.75269 0.559076 6.75269 0.580579 6.75269C0.774105 6.75269 0.946129 6.62365 0.967632 6.43011C1.01064 6.21505 0.881618 6 0.666589 5.95699C0.45156 5.91398 0.236531 6.04301 0.193525 6.25806C0.150519 6.49462 0.279539 6.70968 0.494568 6.75269ZM0.817112 8.02151C0.817112 8 0.817112 8 0.817112 8.02151C0.817112 7.78495 0.645087 7.5914 0.408554 7.5914C0.193525 7.5914 0 7.76344 0 8C0 8.21505 0.193525 8.4086 0.408554 8.4086C0.645087 8.4301 0.817112 8.23656 0.817112 8.02151ZM0.946128 5.18279C1.01064 5.2043 1.05364 5.22581 1.11815 5.22581C1.26867 5.22581 1.41919 5.13978 1.4837 4.98925C1.56971 4.7957 1.4837 4.53763 1.29018 4.45161C1.09665 4.36559 0.838614 4.45161 0.752603 4.64516C0.645088 4.83871 0.731098 5.07527 0.946128 5.18279ZM7.61204 0.817205H7.63354C7.84857 0.795699 8.02059 0.623657 8.02059 0.387097C7.99909 0.172044 7.82707 0 7.59054 0C7.37551 0.0215054 7.20348 0.193548 7.20348 0.430107C7.20348 0.645161 7.39701 0.817205 7.61204 0.817205ZM15.3531 10.043C15.1381 9.97849 14.9015 10.086 14.837 10.3011C14.7725 10.5161 14.88 10.7527 15.0951 10.8172C15.1381 10.8387 15.1811 10.8387 15.2241 10.8387C15.3961 10.8387 15.5466 10.7312 15.6111 10.5591C15.6971 10.3441 15.5681 10.1075 15.3531 10.043ZM12.0631 2.04301C12.1277 2.08602 12.2137 2.10753 12.2997 2.10753C12.4287 2.10753 12.5577 2.04301 12.6437 1.93548C12.7727 1.74194 12.7297 1.50537 12.5362 1.37634C12.3427 1.24731 12.1062 1.29032 11.9771 1.48387C11.8266 1.65591 11.8696 1.91398 12.0631 2.04301ZM13.5468 3.16129C13.6544 3.16129 13.7404 3.11828 13.8264 3.05376C13.9984 2.90322 13.9984 2.64516 13.8479 2.47312C13.6974 2.30107 13.4393 2.30107 13.2673 2.45161C13.0953 2.60215 13.0953 2.86021 13.2458 3.03226C13.3318 3.11828 13.4393 3.16129 13.5468 3.16129ZM5.97782 1.07527C6.02082 1.07527 6.04232 1.07527 6.08533 1.05376C6.30036 0.989246 6.42938 0.774191 6.36487 0.559138C6.30036 0.344084 6.08533 0.215054 5.8703 0.279571C5.65527 0.344087 5.52625 0.559138 5.59076 0.774191C5.63377 0.96774 5.80579 1.07527 5.97782 1.07527ZM13.2458 12.9462C13.0953 13.1183 13.0953 13.3763 13.2673 13.5269C13.3533 13.5914 13.4393 13.6344 13.5468 13.6344C13.6544 13.6344 13.7619 13.5914 13.8479 13.5054C13.9984 13.3333 13.9984 13.0753 13.8264 12.9247C13.6544 12.7742 13.3963 12.7742 13.2458 12.9462ZM15.6326 8.4086C15.4176 8.38709 15.2026 8.53763 15.1811 8.77419C15.1596 8.98925 15.3101 9.2043 15.5466 9.22581C15.5681 9.22581 15.5681 9.22581 15.5896 9.22581C15.8047 9.22581 15.9767 9.07527 15.9982 8.86021C16.0197 8.62365 15.8477 8.4301 15.6326 8.4086ZM14.751 11.5699C14.5575 11.4624 14.2994 11.5054 14.1919 11.6989C14.0844 11.8925 14.1274 12.1505 14.321 12.2581C14.3855 12.3011 14.45 12.3226 14.536 12.3226C14.665 12.3226 14.8155 12.2581 14.88 12.129C15.009 11.9355 14.9445 11.6774 14.751 11.5699ZM14.536 4.47312C14.6005 4.47312 14.6865 4.45161 14.751 4.4086C14.9445 4.30107 15.009 4.04301 14.88 3.84946C14.7725 3.65591 14.5145 3.5914 14.321 3.72043C14.1274 3.82796 14.0629 4.08602 14.1919 4.27957C14.2564 4.4086 14.407 4.47312 14.536 4.47312ZM12.0631 13.957C11.8696 14.086 11.8266 14.3441 11.9556 14.5161C12.0416 14.6237 12.1707 14.6882 12.2997 14.6882C12.3857 14.6882 12.4502 14.6667 12.5362 14.6237C12.7297 14.4946 12.7727 14.2366 12.6437 14.0645C12.5147 13.871 12.2567 13.828 12.0631 13.957ZM9.20326 15.0968C8.98823 15.1398 8.83771 15.3333 8.85921 15.5699C8.90221 15.7634 9.07424 15.914 9.26776 15.914C9.28926 15.914 9.31077 15.914 9.33227 15.914C9.5473 15.871 9.69782 15.6774 9.67632 15.4409C9.63331 15.2258 9.41829 15.0753 9.20326 15.0968ZM7.63354 15.1828C7.41851 15.1613 7.22499 15.3333 7.20348 15.5699C7.18198 15.7849 7.354 15.9785 7.59054 16H7.61204C7.82707 16 7.99909 15.828 8.02059 15.6129C8.0421 15.3978 7.87007 15.2043 7.63354 15.1828ZM10.687 14.6882C10.4719 14.7742 10.3859 15.0108 10.4504 15.2258C10.5149 15.3763 10.6655 15.4839 10.8375 15.4839C10.8805 15.4839 10.945 15.4839 10.988 15.4624C11.203 15.3763 11.289 15.1398 11.2245 14.9247C11.1385 14.7097 10.902 14.6021 10.687 14.6882ZM6.10683 14.9462C5.8918 14.8817 5.67677 15.0108 5.61226 15.2258C5.54775 15.4409 5.67677 15.6559 5.8918 15.7204C5.93481 15.7204 5.95631 15.7419 5.99932 15.7419C6.17134 15.7419 6.34336 15.6129 6.38637 15.4409C6.45088 15.2258 6.32186 15.0107 6.10683 14.9462ZM10.687 1.31183C10.73 1.33333 10.7945 1.33333 10.8375 1.33333C11.0095 1.33333 11.16 1.22581 11.2245 1.07527C11.3105 0.860215 11.203 0.623656 10.988 0.537634C10.773 0.451613 10.5364 0.559138 10.4504 0.774191C10.3644 0.989245 10.4719 1.2258 10.687 1.31183ZM9.89135 6.12903C9.74083 5.97849 9.48279 5.97849 9.31077 6.12903L8.0421 7.39785L6.77342 6.12903C6.6229 5.97849 6.36487 5.97849 6.19285 6.12903C6.04233 6.27957 6.04233 6.53763 6.19285 6.70968L7.46152 7.97849L6.19285 9.24731C6.04233 9.39785 6.04233 9.65591 6.19285 9.82796C6.27886 9.91398 6.38637 9.95699 6.47238 9.95699C6.55839 9.95699 6.68741 9.91398 6.75192 9.82796L8.02059 8.55914L9.28927 9.82796C9.37528 9.91398 9.48279 9.95699 9.5688 9.95699C9.65482 9.95699 9.78384 9.91398 9.84834 9.82796C9.99886 9.67742 9.99886 9.41935 9.84834 9.24731L8.57967 7.97849L9.84834 6.70968C10.0634 6.53763 10.0634 6.27957 9.89135 6.12903Z" fill="#C4DEFF" fill-opacity="0.5"/>
</svg>
