<svg width="20" height="20" viewBox="0 0 20 20" fill="none" xmlns="http://www.w3.org/2000/svg">
<path fill-rule="evenodd" clip-rule="evenodd" d="M2 9.99984C2 7.88275 3.71624 6.1665 5.83333 6.1665C7.82995 6.1665 9.47003 7.69297 9.65024 9.64253C9.7404 9.55426 9.86385 9.49984 10 9.49984H14.1667H17.5H18V9.99984V13.3332C18 13.6093 17.7761 13.8332 17.5 13.8332C17.2239 13.8332 17 13.6093 17 13.3332V10.4998H14.6667V12.4998C14.6667 12.776 14.4428 12.9998 14.1667 12.9998C13.8905 12.9998 13.6667 12.776 13.6667 12.4998V10.4998H10C9.86385 10.4998 9.7404 10.4454 9.65024 10.3571C9.47003 12.3067 7.82995 13.8332 5.83333 13.8332C3.71624 13.8332 2 12.1169 2 9.99984ZM5.83333 7.1665C4.26853 7.1665 3 8.43503 3 9.99984C3 11.5646 4.26853 12.8332 5.83333 12.8332C7.39814 12.8332 8.66667 11.5646 8.66667 9.99984C8.66667 8.43503 7.39814 7.1665 5.83333 7.1665Z" fill="#C4DEFF" />
</svg>
