<svg width="30" height="28" viewBox="0 0 30 28" fill="none" xmlns="http://www.w3.org/2000/svg">
<path fill-rule="evenodd" clip-rule="evenodd" d="M5.33179 21.9767C7.30485 23.2955 9.62462 23.9996 11.9978 24C12.719 24.0001 13.437 23.9353 14.1432 23.8071C13.2226 21.9582 12.9305 19.7847 13.4696 17.6238C14.6363 12.9418 19.2746 10.0393 23.9562 10.975C23.7836 8.96257 23.1052 7.02023 21.9767 5.33179C20.658 3.35874 18.7838 1.82101 16.5912 0.913031C14.3986 0.00505136 11.986 -0.232404 9.65838 0.230689C7.33082 0.693782 5.19282 1.83663 3.51472 3.51472C1.83663 5.19282 0.693782 7.33082 0.230689 9.65838C-0.232404 11.986 0.00505136 14.3986 0.913031 16.5912C1.82101 18.7838 3.35874 20.658 5.33179 21.9767Z" fill="#F0F4F8"/>
<path fill-rule="evenodd" clip-rule="evenodd" d="M5.33179 21.9767C7.30485 23.2955 9.62462 23.9996 11.9978 24C12.719 24.0001 13.437 23.9353 14.1432 23.8071C13.9984 23.5162 13.8691 23.2174 13.7562 22.9118C12.4667 23.1184 11.1441 23.0961 9.84989 22.8387C7.70544 22.4123 5.73555 21.3596 4.1892 19.8139C2.64285 18.2682 1.58945 16.2987 1.16216 14.1544C0.734858 12.0101 0.952839 9.78732 1.78855 7.7669C2.62426 5.74648 4.04018 4.01917 5.85735 2.80327C7.67453 1.58738 9.81137 0.937492 11.9978 0.935755C13.451 0.9346 14.8902 1.21991 16.2331 1.77537C17.576 2.33082 18.7962 3.14553 19.824 4.17291C20.8518 5.20029 21.667 6.42019 22.223 7.76285C22.6303 8.74653 22.8927 9.78196 23.0036 10.8368C23.3202 10.8656 23.6381 10.9114 23.9562 10.975C23.7836 8.96257 23.1052 7.02023 21.9767 5.33179C20.658 3.35874 18.7838 1.82101 16.5912 0.913031C14.3986 0.00505138 11.986 -0.232404 9.65838 0.230689C7.33082 0.693782 5.19282 1.83663 3.51472 3.51472C1.83663 5.19282 0.693782 7.33082 0.230689 9.65838C-0.232404 11.986 0.00505138 14.3986 0.913031 16.5912C1.82101 18.7838 3.35874 20.658 5.33179 21.9767ZM14.6124 8.58527C14.6124 8.71434 14.7178 8.81859 14.8483 8.81859C14.9788 8.81859 15.0842 8.71434 15.0842 8.58527C15.0842 8.4562 14.9788 8.35195 14.8483 8.35195C14.7178 8.35195 14.6124 8.4562 14.6124 8.58527ZM19.6162 8.81354C20.8358 9.03693 21.5535 9.3745 21.5987 9.41421C21.6388 9.45393 21.423 9.52839 21.3377 9.52839C21.3377 9.52839 19.6663 8.89793 17.6286 9.06175L16.143 8.88408V8.90711L17.5282 9.1305C16.1982 9.23971 15.6712 9.68153 15.2897 10.3467C15.1214 10.6402 14.973 11.088 14.8059 11.5922C14.5547 12.3505 14.2613 13.2362 13.7941 13.916C13.2963 14.6401 12.6404 15.1123 12.143 15.4703C11.863 15.6719 11.6333 15.8372 11.5104 15.991C11.1942 16.3832 11.159 16.8697 11.159 16.8697C11.159 16.8697 10.6822 16.5619 10.351 15.9463C10.1265 15.5325 10.0426 15.064 9.99622 14.805C9.97417 14.6818 9.9606 14.606 9.94442 14.606C9.89423 14.606 9.93439 15.9116 10.6521 16.6215C11.2222 17.1814 11.8877 17.3301 12.1759 17.3946C12.2556 17.4124 12.3065 17.4238 12.3184 17.4356C12.3737 17.4902 11.7864 17.7185 11.686 17.7185C11.5857 17.7185 11.1741 17.5001 10.9332 17.3462C10.7949 17.256 10.6686 17.1385 10.5808 17.0567L10.5808 17.0566L10.5807 17.0566C10.5188 16.9989 10.4759 16.959 10.4614 16.959C10.4263 16.959 10.6923 17.2916 10.9282 17.4654C11.0448 17.5513 11.1712 17.619 11.2692 17.6714C11.3695 17.7251 11.4401 17.7629 11.4401 17.788C11.4401 17.8377 11.4251 18.3043 11.405 18.3242C11.3899 18.3391 10.351 17.6441 10.09 17.0434C9.92625 16.6666 9.85536 16.3465 9.81411 16.1602C9.7896 16.0495 9.77555 15.986 9.75872 15.986C9.71355 15.986 9.7788 16.7605 10.0649 17.2569C10.351 17.7533 11.2444 18.4384 11.2444 18.4384C11.2444 18.4384 11.2092 18.8851 11.1892 18.905C11.1691 18.9248 10.3259 18.1753 9.99963 17.6193C9.76921 17.2266 9.67399 16.8784 9.62733 16.7078C9.60792 16.6369 9.59691 16.5966 9.58807 16.5966C9.55796 16.5966 9.65834 17.247 9.90427 17.6987C10.1502 18.1504 11.0336 18.9894 11.0336 18.9894C11.0336 18.9894 11.1741 19.6645 11.1088 19.6645C11.0436 19.6645 10.4112 18.9993 10.1101 18.488C9.9573 18.2329 9.83329 17.9901 9.74362 17.8146C9.65356 17.6383 9.59814 17.5299 9.58305 17.5448C9.55294 17.5796 9.86914 18.4185 10.1351 18.8007C10.4012 19.178 11.0486 19.8184 11.0486 19.8184C11.0486 19.8184 11.0988 20.3992 11.0436 20.3992C10.9834 20.3992 9.19156 18.9348 8.8854 16.4924C8.57578 14.0174 9.60662 12.978 10.0365 12.5446C10.1153 12.4651 10.174 12.406 10.2004 12.3622C10.2912 12.2043 10.2402 11.8406 10.1756 11.3798L10.1756 11.3797C10.1223 11 10.0599 10.5543 10.0599 10.1035C10.0599 9.79729 10.0822 9.53727 10.1031 9.29342C10.148 8.77029 10.1866 8.32158 9.98458 7.65117C11.2444 8.79294 12.2231 9.67656 12.2833 9.69642C12.2833 9.69642 13.1466 7.67599 14.7928 7.77031C15.3875 7.80361 15.6673 7.99953 15.8771 8.14652C15.9489 8.19679 16.0125 8.24134 16.0777 8.2717C16.2434 8.34616 16.5897 8.40076 16.8105 8.42559L16.7883 8.44867C16.6741 8.56742 16.5434 8.7034 16.143 8.85251V8.86458C16.6623 8.7227 16.7809 8.61855 16.9561 8.41641C16.9556 8.41641 16.9657 8.41767 16.9853 8.42011L16.9857 8.42016C17.1973 8.44658 18.5011 8.60931 19.6162 8.81354ZM9.94531 9.23333L9.94531 9.23334C9.92563 9.43954 9.9044 9.6621 9.9044 9.94509C9.9044 10.4133 9.96348 10.8858 10.0127 11.2793C10.0689 11.7286 10.1122 12.0748 10.0399 12.1939C9.94957 12.3478 9.59321 12.6406 9.59321 12.6406C9.59321 12.6406 9.38241 12.735 9.32218 12.6754C9.2851 12.6387 9.42117 12.4854 9.53122 12.3613L9.53123 12.3613C9.59991 12.2839 9.65846 12.2179 9.65846 12.1988C9.65846 12.17 9.54019 12.2499 9.42619 12.3268C9.3437 12.3825 9.26345 12.4366 9.23184 12.447C9.18667 12.457 8.75001 12.5215 8.75001 12.4024C8.75001 12.3321 9.09001 12.0778 9.35169 11.882L9.3517 11.882L9.35171 11.882C9.51539 11.7596 9.64842 11.66 9.64842 11.6428C9.64842 11.6229 9.5069 11.6893 9.33742 11.7688C9.1279 11.867 8.87564 11.9854 8.79518 11.9854C8.64461 11.9854 8.09251 11.8811 8.09251 11.8017C8.09251 11.7563 8.55982 11.6116 8.93541 11.4952L8.93545 11.4952C9.17652 11.4205 9.37981 11.3575 9.39747 11.34C9.41263 11.3267 9.2214 11.3576 8.95644 11.4003C8.43202 11.4849 7.61879 11.6161 7.54543 11.5436C7.43501 11.4344 8.01221 11.067 8.01221 11.067C8.01221 11.067 9.35732 11.062 9.42256 10.9925C9.44951 10.9659 9.02962 10.9384 8.52736 10.9055L8.52734 10.9055L8.52728 10.9055H8.52727C7.81337 10.8587 6.9331 10.8011 6.9331 10.7195C6.9331 10.5855 7.56049 10.2727 7.56049 10.2727C7.56049 10.2727 9.38743 10.5011 9.38241 10.4167C9.38241 10.3802 8.80545 10.3 8.13699 10.2071L8.13696 10.2071C7.26054 10.0852 6.22686 9.94156 6.13005 9.84581C5.96944 9.68695 6.92307 9.49831 6.92307 9.49831C6.92307 9.49831 9.21678 10.099 9.21678 10.0344C9.21678 10.0108 8.7629 9.86416 8.18739 9.67821C7.19058 9.35612 5.82891 8.91614 5.82891 8.7934C5.82891 8.60476 6.65706 8.61965 6.65706 8.61965C6.65706 8.61965 9.18165 9.64227 9.25192 9.57278C9.2822 9.54282 8.5256 9.21778 7.65478 8.84368L7.65473 8.84366C6.50507 8.34976 5.15635 7.77035 5.15635 7.67149C5.15635 7.49278 6.03971 7.52753 6.03971 7.52753C6.03971 7.52753 9.21678 9.15578 9.27701 9.09621C9.30473 9.0688 8.36929 8.53668 7.35136 7.95764C6.15751 7.27852 4.85019 6.53486 4.85019 6.46519C4.85019 6.33612 5.77872 6.29144 5.77872 6.29144C5.77872 6.29144 9.24188 8.67426 9.30211 8.61469C9.32782 8.58926 8.51106 7.97756 7.56647 7.27012L7.56645 7.27011C6.29841 6.32043 4.8 5.19821 4.8 5.09011C4.8 4.90147 5.99956 5.20925 5.99956 5.20925C5.99956 5.20925 9.26195 8.17784 9.34226 8.09841C9.38635 8.0548 8.33811 7.0999 7.36542 6.21382C6.56646 5.486 5.81848 4.80462 5.76868 4.71283C5.65826 4.5093 5.34708 3.68524 5.4324 3.60085C5.48259 3.55121 7.84156 5.69077 9.74378 7.41831C10.0309 8.33674 9.99259 8.73781 9.94531 9.23333ZM14.8481 8.922C14.4315 8.922 14.3913 8.61919 14.3913 8.5894C14.3913 8.55466 14.4315 8.2568 14.8481 8.2568C15.2697 8.2568 15.2948 8.55962 15.2948 8.5894C15.2948 8.61919 15.2697 8.922 14.8481 8.922Z" fill="#3EBD93"/>
<ellipse cx="22.1999" cy="19.8" rx="7.8" ry="7.8" fill="#0C60FF"/>
<path d="M25.7978 22.0824C25.6934 20.3194 23.3698 19.518 23.1474 19.4357C23.1384 19.4314 23.1384 19.4227 23.1429 19.414L25.5391 17.1182V16.8713C25.5391 16.8323 25.5028 16.7977 25.462 16.7977H21.0462V15.4158V15L19.417 15.3249V15.5588H19.5078C19.5078 15.5588 19.9071 15.5588 19.9071 15.94V16.7933H18.6455C18.6228 16.7933 18.6001 16.815 18.6001 16.8367V17.3781H19.9117C19.9117 17.3781 19.9117 17.9542 19.9117 18.6257V20.3194C19.9117 21.242 20.5334 21.8831 21.6226 21.7965C21.854 21.7791 22.0673 21.6925 22.2489 21.5799C22.3306 21.5279 22.3805 21.4456 22.3805 21.3503V21.0601C22.0265 21.2853 21.727 21.2723 21.727 21.2723C21.0371 21.2723 21.0508 20.4363 21.0508 20.4363V17.3781H24.2275L21.9403 19.5786C21.9357 19.8689 21.9312 20.0941 21.9312 20.0984C21.9312 20.1071 21.9357 20.1114 21.9448 20.1114C24.0415 20.4493 24.6088 21.7445 24.6088 22.1214C24.6088 22.1214 24.8357 23.9537 22.916 24.0793C22.916 24.0793 21.6589 24.1313 21.4365 23.6505C21.4274 23.6331 21.4365 23.6158 21.4547 23.6071C21.6634 23.5162 21.8041 23.3386 21.8041 23.1003C21.8041 22.7451 21.5772 22.4549 21.1007 22.4549C20.7149 22.4549 20.3973 22.7451 20.3973 23.1003C20.3973 23.1003 20.2157 24.6424 22.9114 24.5991C25.9884 24.5471 25.7978 22.0824 25.7978 22.0824Z" fill="white"/>
</svg>
