<svg xmlns="http://www.w3.org/2000/svg" xmlns:xlink="http://www.w3.org/1999/xlink" width="440px" height="440px" viewBox="0 0 440 440" version="1.1">
    <title>Group 3 Copy</title>
    <circle cx="220" cy="220" r="220" fill="#3ebd93"/>
    <circle cx="220" cy="220" r="205" fill="white"/>
    <g id="Page-1" stroke="none" stroke-width="1" fill="none" fill-rule="evenodd">
        <g id="Group-9" transform="translate(82, 18)" fill="#3ebd93">
            <g id="Group-3-Copy" transform="translate(0.000000, 48.000000)">
                <path d="M200.20764,105.090971 C197.627698,105.090971 195.534082,103.000804 195.534082,100.420862 C195.534082,97.8374713 197.627698,95.7473044 200.20764,95.7473044 C202.791031,95.7473044 204.881198,97.8374713 204.881198,100.420862 C204.881198,103.000804 202.791031,105.090971 200.20764,105.090971 Z" id="Fill-19"/>
                <path d="M295.167281,105.035015 C319.469783,109.560261 333.783633,116.299842 334.621769,117.134529 C335.456456,117.972666 331.079522,119.400602 329.406699,119.400602 C329.406699,119.400602 296.15373,106.707839 255.488601,110.018994 L224.922496,106.345681 C236.083849,103.355294 238.47409,101.21339 242.106014,97.0330561 C242.106014,97.0330561 270.868228,100.509769 295.167281,105.035015 Z" id="Fill-20"/>
                <path d="M101.728356,127.820675 C101.728356,108.405576 106.646801,103.090482 98.527572,76.8771669 C60.5872481,42.1376267 13.5895342,-0.979826778 12.5927384,0.0169690041 C10.9371606,1.67254677 17.052451,18.3490437 19.2840319,22.4293531 C21.5121636,26.5096624 92.0880643,89.0560109 90.5118163,90.6288098 C88.9390174,92.2050578 23.8748111,32.3869635 23.8748111,32.3869635 C23.8748111,32.3869635 0,26.2199363 0,30.0243161 C0,33.8286958 90.905016,99.8138173 89.7254168,100.993416 C88.5458177,102.173016 19.546165,54.1612603 19.546165,54.1612603 C19.546165,54.1612603 1.04853259,55.0787263 1.04853259,57.7035069 C1.04853259,60.3282875 90.446283,109.454109 89.2011505,110.699241 C87.9560181,111.947823 24.6612105,79.0811548 24.6612105,79.0811548 C24.6612105,79.0811548 7.0844932,78.4292711 7.0844932,81.9715177 C7.0844932,85.5137643 90.0530833,118.8978 88.6768842,120.277448 C87.3006852,121.653647 36.9918158,101.124483 36.9918158,101.124483 C36.9918158,101.124483 20.463631,100.86235 20.463631,104.66673 C20.463631,108.471109 88.0215514,128.279408 88.0215514,129.590073 C88.0215514,130.900739 42.3689944,118.832267 42.3689944,118.832267 C42.3689944,118.832267 23.3712395,122.619401 26.6099635,125.861574 C30.0211435,129.269305 91.4327314,135.626034 91.4327314,137.329899 C91.4327314,139.033765 55.0272661,134.449884 55.0272661,134.449884 C55.0272661,134.449884 42.5035101,140.741079 42.5035101,143.493477 C42.5035101,146.249325 93.39873,147.691057 92.0880643,149.005172 C90.7739494,150.315837 64.0156737,150.446904 64.0156737,150.446904 C64.0156737,150.446904 52.5370012,157.859064 54.6995997,160.021662 C56.8656472,162.18771 92.481264,155.103217 91.6293313,155.955149 C90.7739494,156.810531 65.6540059,163.729467 65.6540059,165.302265 C65.6540059,166.878513 76.6739454,169.041112 79.6263924,169.041112 C82.5753903,169.041112 96.6443523,161.270244 96.6443523,162.156668 C96.6443523,163.039642 78.7399685,175.142606 78.7399685,177.501804 C78.7399685,179.864452 87.4455483,178.619319 88.2940319,178.360635 C89.8254413,177.898453 96.8409521,172.386759 96.8409521,173.369758 C96.8409521,174.356206 88.9217718,181.782162 90.1531078,183.013498 C91.3809946,184.241385 95.5647776,182.323674 95.5647776,182.323674 C95.5647776,182.323674 102.711355,176.439475 104.487652,173.286979 C107.112433,168.630667 101.728356,147.966986 101.728356,127.820675 Z" id="Fill-21"/>
                <path d="M81.3957912,259.652953 C87.4972851,308.847756 123.240519,338.361879 124.358034,338.361879 C125.4721,338.361879 124.489101,326.686607 124.489101,326.686607 C124.489101,326.686607 111.634229,313.831735 106.319135,306.157442 C101.00749,298.48315 94.6921501,281.544519 95.3336865,280.906432 C95.9717738,280.264896 99.7623571,289.563724 105.794869,299.859349 C111.830829,310.158422 124.423568,323.53756 125.6687,323.53756 C126.913832,323.53756 124.226968,310.027355 124.226968,310.027355 C124.226968,310.027355 106.581268,293.105971 101.728356,284.05203 C96.8754433,275.001538 94.8404623,261.819 95.433711,261.819 C96.0235106,261.819 97.1375765,271.197158 103.63227,282.413698 C110.123515,293.630237 126.913832,308.71324 127.307032,308.320041 C127.703681,307.926841 128.359014,298.876349 128.359014,298.876349 C128.359014,298.876349 110.516714,285.104012 104.811869,275.067071 C99.1035751,265.03358 97.7929093,249.488395 98.7103753,249.488395 C99.6312905,249.488395 100.090023,258.735487 105.336136,270.803959 C110.582248,282.872431 131.211436,296.941393 131.573594,296.579235 C131.932303,296.220527 132.228927,286.742344 132.228927,285.759345 C132.228927,284.776345 126.717233,282.741364 122.06092,279.264651 C117.404608,275.787938 112.027429,269.100093 112.748295,269.100093 C113.469161,269.100093 117.404608,273.756406 122.191987,276.905453 C126.979366,280.05105 135.212416,284.44523 137.178415,284.44523 C139.147862,284.44523 150.905914,279.871696 149.774602,278.740385 C148.643291,277.609073 131.08037,276.770937 116.618208,262.308775 C102.328503,248.022519 101.566247,221.678138 102.549246,221.678138 C103.532246,221.678138 104.022021,236.330001 110.616739,248.726139 C117.208008,261.125727 126.717233,267.327245 126.717233,267.327245 C126.717233,267.327245 127.372565,257.490354 133.670659,249.619462 C140.520612,241.055296 163.712498,230.656198 179.188701,207.833368 C194.668353,185.00709 200.573247,150.746978 208.992549,135.943353 C216.622004,122.536622 227.10388,113.641341 253.603472,111.40976 L226.020857,106.894861 L226.020857,105.780795 C234.481549,102.583461 236.964916,99.6827507 239.355156,97.1648928 C234.998917,96.6337283 228.073083,95.592094 224.710191,94.0399898 C219.591696,91.6807915 214.966426,84.8342876 199.159107,83.9375163 C166.361422,82.0749913 149.150311,122.767713 149.150311,122.767713 C147.946568,122.35037 128.49353,104.577052 103.377035,81.5817671 C109.237091,101.352125 104.877403,111.551174 104.877403,130.966272 C104.877403,151.116033 111.009939,170.713935 107.636699,176.436026 C104.215171,182.237446 74.0905543,200.73163 81.3957912,259.652953 Z M200.20764,107.156994 C191.860769,107.156994 191.062643,101.088267 191.062643,100.419138 C191.062643,99.7465594 191.860769,93.6812813 200.20764,93.6812813 C208.55796,93.6812813 209.107849,99.748284 209.107849,100.420862 C209.107849,101.089992 208.55796,107.156994 200.20764,107.156994 Z" id="Fill-22"/>
            </g>
        </g>
    </g>
</svg>