<svg width="20" height="20" viewBox="0 0 20 20" fill="none" xmlns="http://www.w3.org/2000/svg">
<path d="M10 20C15.5228 20 20 15.5228 20 10C20 4.47715 15.5228 0 10 0C4.47715 0 0 4.47715 0 10C0 15.5228 4.47715 20 10 20Z" fill="#354D70"/>
<path d="M10.1695 10.3393L9.12838 13.8502H14.6974C14.7343 13.8489 14.771 13.8549 14.8056 13.8678C14.8402 13.8807 14.8719 13.9004 14.8989 13.9256C14.9258 13.9507 14.9476 13.981 14.9629 14.0146C14.9782 14.0482 14.9867 14.0845 14.9879 14.1214V14.2134L14.5037 15.8841C14.4823 15.9631 14.4347 16.0325 14.3687 16.0809C14.3027 16.1293 14.2222 16.1538 14.1405 16.1504H5.61749L7.04606 11.2836L5.448 11.7679L5.81119 10.6541L7.40925 10.1698L9.41893 3.34171C9.44106 3.26315 9.48883 3.19424 9.55465 3.14598C9.62047 3.09771 9.70055 3.07285 9.78213 3.07537H11.9371C11.974 3.07407 12.0108 3.08007 12.0453 3.093C12.0799 3.10593 12.1116 3.12555 12.1386 3.15074C12.1656 3.17592 12.1873 3.20618 12.2026 3.23978C12.2179 3.27338 12.2264 3.30966 12.2276 3.34656V3.43857L10.5327 9.20127L12.1308 8.71701L11.7918 9.87924L10.1695 10.3393Z" fill="#C4DEFF" fill-opacity="0.5"/>
</svg>
