<svg width="122" height="27" viewBox="0 0 122 27" fill="none" xmlns="http://www.w3.org/2000/svg">
<path d="M45.6398 10.7882C45.6398 12.0216 44.6324 12.2876 42.4108 12.6746C39.0009 13.2791 36.7793 14.0046 36.7793 16.8099C36.7793 18.8897 38.4584 20.3165 41.1191 20.3165C43.2891 20.3165 44.7615 19.591 45.5882 18.4302H45.6398C46.0015 19.7845 46.7506 20.0989 47.9906 20.0989C48.3781 20.0989 48.6622 20.0747 49.2047 19.9054V18.5511C47.8873 18.6962 47.7064 18.1642 47.7064 17.1969V11.1994C47.7064 8.2248 45.459 7.30582 42.9533 7.30582C39.13 7.30582 37.5543 9.0954 37.4251 11.4654H39.4917C39.6209 9.67581 40.4475 8.99867 42.9533 8.99867C45.0715 8.99867 45.6398 9.82091 45.6398 10.7882ZM41.3258 18.6237C39.6209 18.6237 38.8459 17.9224 38.8459 16.7132C38.8459 15.238 40.0342 14.6334 42.5916 14.1256C43.9866 13.8595 45.2523 13.521 45.6398 13.1582V15.2138C45.6398 17.5838 43.7799 18.6237 41.3258 18.6237Z" fill="#C4DEFF"/>
<path d="M57.1282 9.33724V7.64439H54.5449V3.5332H52.4784V7.64439H50.5409V9.33724H52.4784V16.955C52.4784 19.4701 53.8216 20.1231 55.5782 20.1231C56.1207 20.1231 56.6632 20.0747 57.1282 19.978V18.2851C55.3716 18.406 54.5449 18.1642 54.5449 16.7616V9.33724H57.1282Z" fill="#C4DEFF"/>
<path d="M65.7693 20.3165C61.7395 20.3165 59.3112 17.6564 59.3112 13.8112C59.3112 9.96601 61.7395 7.30582 65.7693 7.30582C69.7734 7.30582 72.2016 9.96601 72.2016 13.8112C72.2016 17.6564 69.7734 20.3165 65.7693 20.3165ZM65.7693 18.6237C68.7142 18.6237 70.135 16.4472 70.135 13.8112C70.135 11.1752 68.7142 8.99867 65.7693 8.99867C62.7986 8.99867 61.3778 11.1752 61.3778 13.8112C61.3778 16.4472 62.7986 18.6237 65.7693 18.6237Z" fill="#C4DEFF"/>
<path d="M88.9541 7.30582C86.965 7.30582 85.5959 8.27316 84.6918 9.43397H84.6401C84.0976 8.05551 83.0127 7.30582 81.1269 7.30582C79.1378 7.30582 78.0012 8.24898 77.3037 9.11959H77.2521V7.64439H75.1855V19.978H77.2521V12.2876C77.2521 10.3771 78.5437 8.99867 80.6103 8.99867C82.6769 8.99867 83.0127 10.2562 83.0127 11.8523V19.978H85.0793V12.2876C85.0793 10.3771 86.3709 8.99867 88.4375 8.99867C90.5041 8.99867 90.8399 10.2562 90.8399 11.8523V19.978H92.9065V11.3686C92.9065 8.78102 91.6149 7.30582 88.9541 7.30582Z" fill="#C4DEFF"/>
<path d="M102.172 18.6237C99.3051 18.6237 97.8843 16.5439 97.8843 14.319H108.295C108.295 9.94182 106.28 7.30582 102.147 7.30582C98.2976 7.30582 95.8177 9.69999 95.8177 13.8112C95.8177 17.6805 98.2459 20.3165 102.25 20.3165C105.531 20.3165 107.416 18.4786 108.088 16.1812H106.022C105.789 17.0276 104.807 18.6237 102.172 18.6237ZM102.147 8.99867C104.627 8.99867 106.228 10.6431 106.228 12.6262H97.8843C97.8843 10.6431 99.6667 8.99867 102.147 8.99867Z" fill="#C4DEFF"/>
<path d="M109.755 7.64439L114.405 13.6661L109.316 19.978H111.77L115.619 14.9478H115.671L119.546 19.978H122L116.885 13.6661L121.535 7.64439H119.081L115.671 12.3602H115.619L112.209 7.64439H109.755Z" fill="#C4DEFF"/>
<path fill-rule="evenodd" clip-rule="evenodd" d="M13.555 8.51095C15.9417 8.51095 17.8766 6.60571 17.8766 4.25547C17.8766 1.90524 15.9417 0 13.555 0C11.1682 0 9.2334 1.90524 9.2334 4.25547C9.2334 6.60571 11.1682 8.51095 13.555 8.51095ZM4.02694 21.084C6.25096 21.084 8.05389 19.3087 8.05389 17.1187C8.05389 14.9287 6.25096 13.1534 4.02694 13.1534C1.80292 13.1534 0 14.9287 0 17.1187C0 19.3087 1.80292 21.084 4.02694 21.084ZM25.7336 21.0831C25.7336 24.0744 23.271 26.4992 20.2334 26.4992C17.1957 26.4992 14.7331 24.0744 14.7331 21.0831C14.7331 18.0919 17.1957 15.6671 20.2334 15.6671C23.271 15.6671 25.7336 18.0919 25.7336 21.0831ZM10.4815 8.86312C10.2141 8.65993 9.82933 8.70954 9.62218 8.97393L7.1387 12.1435C6.93155 12.4079 6.98043 12.787 7.24787 12.9902C7.51532 13.1933 7.90006 13.1437 8.10721 12.8793L10.5907 9.70973C10.7978 9.44535 10.749 9.0663 10.4815 8.86312ZM15.4733 10.2848C15.35 9.97102 15.5054 9.61935 15.8204 9.4993C16.1354 9.37926 16.4908 9.5363 16.6141 9.85006L18.1164 13.6729C18.2398 13.9866 18.0843 14.3383 17.7693 14.4584C17.4543 14.5784 17.0989 14.4214 16.9756 14.1076L15.4733 10.2848ZM8.91459 17.971C8.82166 18.2908 9.00617 18.6232 9.32671 18.7135L13.3576 19.8493C13.6782 19.9396 14.0133 19.7536 14.1063 19.4338C14.1992 19.114 14.0147 18.7816 13.6942 18.6913L9.66324 17.5555C9.3427 17.4652 9.00752 17.6512 8.91459 17.971Z" fill="#C4DEFF"/>
</svg>
