<svg width="408" height="90" viewBox="0 0 408 90" fill="none" xmlns="http://www.w3.org/2000/svg">
<path d="M152.632 36.6398C152.632 40.8285 149.263 41.732 141.833 43.0461C130.43 45.0994 123 47.5634 123 57.0908C123 64.1542 128.615 69 137.514 69C144.77 69 149.695 66.536 152.459 62.5937H152.632C153.841 67.1931 156.347 68.2608 160.493 68.2608C161.789 68.2608 162.74 68.1787 164.554 67.6037V63.0043C160.148 63.4971 159.543 61.6902 159.543 58.4049V38.036C159.543 27.9337 152.027 24.8127 143.647 24.8127C130.862 24.8127 125.592 30.8905 125.16 38.9395H132.071C132.503 32.8617 135.267 30.562 143.647 30.562C150.731 30.562 152.632 33.3545 152.632 36.6398ZM138.205 63.2507C132.503 63.2507 129.911 60.8689 129.911 56.7622C129.911 51.7522 133.885 49.6988 142.438 47.9741C147.103 47.0706 151.336 45.9207 152.632 44.6888V51.67C152.632 59.719 146.412 63.2507 138.205 63.2507Z" fill="white"/>
<path d="M191.052 31.7118V25.9625H182.413V12H175.502V25.9625H169.022V31.7118H175.502V57.5836C175.502 66.1254 179.994 68.3429 185.869 68.3429C187.683 68.3429 189.497 68.1787 191.052 67.8501V62.1009C185.177 62.5115 182.413 61.6902 182.413 56.9265V31.7118H191.052Z" fill="white"/>
<path d="M219.95 69C206.473 69 198.353 59.9654 198.353 46.9063C198.353 33.8473 206.473 24.8127 219.95 24.8127C233.341 24.8127 241.462 33.8473 241.462 46.9063C241.462 59.9654 233.341 69 219.95 69ZM219.95 63.2507C229.799 63.2507 234.55 55.8588 234.55 46.9063C234.55 37.9539 229.799 30.562 219.95 30.562C210.015 30.562 205.264 37.9539 205.264 46.9063C205.264 55.8588 210.015 63.2507 219.95 63.2507Z" fill="white"/>
<path d="M297.486 24.8127C290.834 24.8127 286.256 28.098 283.232 32.0403H283.059C281.245 27.3588 277.617 24.8127 271.31 24.8127C264.658 24.8127 260.857 28.0158 258.524 30.9726H258.352V25.9625H251.44V67.8501H258.352V41.732C258.352 35.2435 262.671 30.562 269.582 30.562C276.493 30.562 277.617 34.8328 277.617 40.2536V67.8501H284.528V41.732C284.528 35.2435 288.847 30.562 295.759 30.562C302.67 30.562 303.793 34.8328 303.793 40.2536V67.8501H310.704V38.611C310.704 29.8228 306.385 24.8127 297.486 24.8127Z" fill="white"/>
<path d="M341.692 63.2507C332.103 63.2507 327.351 56.1873 327.351 48.6311H362.167C362.167 33.7651 355.428 24.8127 341.606 24.8127C328.733 24.8127 320.44 32.9438 320.44 46.9063C320.44 60.0475 328.561 69 341.951 69C352.923 69 359.229 62.7579 361.475 54.9553H354.564C353.787 57.83 350.504 63.2507 341.692 63.2507ZM341.606 30.562C349.899 30.562 355.255 36.147 355.255 42.8818H327.351C327.351 36.147 333.312 30.562 341.606 30.562Z" fill="white"/>
<path d="M367.051 25.9625L382.601 46.4135L365.582 67.8501H373.789L386.662 50.7666H386.834L399.793 67.8501H408L390.895 46.4135L406.445 25.9625H398.238L386.834 41.9784H386.662L375.258 25.9625H367.051Z" fill="white"/>
<path fill-rule="evenodd" clip-rule="evenodd" d="M45.3315 28.9051C53.3134 28.9051 59.784 22.4345 59.784 14.4526C59.784 6.47063 53.3134 0 45.3315 0C37.3495 0 30.8789 6.47063 30.8789 14.4526C30.8789 22.4345 37.3495 28.9051 45.3315 28.9051ZM13.4672 71.6062C20.9049 71.6062 26.9343 65.5767 26.9343 58.139C26.9343 50.7013 20.9049 44.6719 13.4672 44.6719C6.02945 44.6719 0 50.7013 0 58.139C0 65.5767 6.02945 71.6062 13.4672 71.6062ZM86.0598 71.6031C86.0598 81.762 77.8245 89.9973 67.6656 89.9973C57.5068 89.9973 49.2715 81.762 49.2715 71.6031C49.2715 61.4443 57.5068 53.209 67.6656 53.209C77.8245 53.209 86.0598 61.4443 86.0598 71.6031ZM35.0529 30.1011C34.1585 29.4111 32.8741 29.5767 32.184 30.4711L23.8688 41.2486C23.1787 42.143 23.3444 43.4274 24.2388 44.1175C25.1332 44.8076 26.4177 44.6419 27.1077 43.7475L35.4229 32.9701C36.113 32.0757 35.9473 30.7912 35.0529 30.1011ZM51.7382 34.9076C51.3305 33.8541 51.8541 32.6695 52.9076 32.2618C53.9611 31.8541 55.1457 32.3776 55.5534 33.4312L60.5946 46.458C61.0023 47.5116 60.4788 48.6961 59.4252 49.1038C58.3717 49.5115 57.1871 48.988 56.7794 47.9345L51.7382 34.9076ZM29.8127 61.0335C29.5019 62.1196 30.1304 63.2519 31.2165 63.5627L44.6458 67.4055C45.7319 67.7163 46.8643 67.0878 47.1751 66.0017C47.4859 64.9156 46.8574 63.7832 45.7713 63.4724L32.342 59.6297C31.2559 59.3189 30.1235 59.9474 29.8127 61.0335Z" fill="white"/>
</svg>
