<svg width="285" height="57" viewBox="0 0 285 57" fill="none" xmlns="http://www.w3.org/2000/svg">
<path d="M29.6319 24.6398C29.6319 28.8285 26.2627 29.732 18.8331 31.0461C7.42958 33.0994 0 35.5634 0 45.0908C0 52.1542 5.61538 57 14.5136 57C21.7704 57 26.6947 54.536 29.4592 50.5937H29.6319C30.8414 55.1931 33.3467 56.2608 37.4935 56.2608C38.7893 56.2608 39.7396 56.1787 41.5538 55.6037V51.0043C37.1479 51.4971 36.5432 49.6902 36.5432 46.4049V26.036C36.5432 15.9337 29.0272 12.8127 20.6473 12.8127C7.86153 12.8127 2.59172 18.8905 2.15976 26.9395H9.071C9.50295 20.8617 12.2675 18.562 20.6473 18.562C27.7314 18.562 29.6319 21.3545 29.6319 24.6398ZM15.2047 51.2507C9.50295 51.2507 6.91124 48.8689 6.91124 44.7622C6.91124 39.7522 10.8852 37.6988 19.4379 35.9741C24.1029 35.0706 28.3361 33.9207 29.6319 32.6888V39.67C29.6319 47.719 23.4118 51.2507 15.2047 51.2507Z" fill="#C4DEFF"/>
<path d="M68.052 19.7118V13.9625H59.413V0H52.5018V13.9625H46.0225V19.7118H52.5018V45.5836C52.5018 54.1254 56.9941 56.3429 62.8686 56.3429C64.6828 56.3429 66.497 56.1787 68.052 55.8501V50.1009C62.1775 50.5115 59.413 49.6902 59.413 44.9265V19.7118H68.052Z" fill="#C4DEFF"/>
<path d="M96.9503 57C83.4734 57 75.3527 47.9654 75.3527 34.9063C75.3527 21.8473 83.4734 12.8127 96.9503 12.8127C110.341 12.8127 118.462 21.8473 118.462 34.9063C118.462 47.9654 110.341 57 96.9503 57ZM96.9503 51.2507C106.799 51.2507 111.55 43.8588 111.55 34.9063C111.55 25.9539 106.799 18.562 96.9503 18.562C87.0154 18.562 82.2639 25.9539 82.2639 34.9063C82.2639 43.8588 87.0154 51.2507 96.9503 51.2507Z" fill="#C4DEFF"/>
<path d="M174.486 12.8127C167.834 12.8127 163.256 16.098 160.232 20.0403H160.059C158.245 15.3588 154.617 12.8127 148.31 12.8127C141.658 12.8127 137.857 16.0158 135.524 18.9726H135.352V13.9625H128.44V55.8501H135.352V29.732C135.352 23.2435 139.671 18.562 146.582 18.562C153.493 18.562 154.617 22.8328 154.617 28.2536V55.8501H161.528V29.732C161.528 23.2435 165.847 18.562 172.759 18.562C179.67 18.562 180.793 22.8328 180.793 28.2536V55.8501H187.704V26.611C187.704 17.8228 183.385 12.8127 174.486 12.8127Z" fill="#C4DEFF"/>
<path d="M218.692 51.2507C209.103 51.2507 204.351 44.1873 204.351 36.6311H239.167C239.167 21.7651 232.428 12.8127 218.606 12.8127C205.733 12.8127 197.44 20.9438 197.44 34.9063C197.44 48.0475 205.561 57 218.951 57C229.923 57 236.229 50.7579 238.475 42.9553H231.564C230.787 45.83 227.504 51.2507 218.692 51.2507ZM218.606 18.562C226.899 18.562 232.255 24.147 232.255 30.8818H204.351C204.351 24.147 210.312 18.562 218.606 18.562Z" fill="#C4DEFF"/>
<path d="M244.051 13.9625L259.601 34.4135L242.582 55.8501H250.789L263.662 38.7666H263.834L276.793 55.8501H285L267.895 34.4135L283.445 13.9625H275.238L263.834 29.9784H263.662L252.258 13.9625H244.051Z" fill="#C4DEFF"/>
</svg>
