<svg width="245" height="256" viewBox="0 0 245 256" fill="none" xmlns="http://www.w3.org/2000/svg">
<path fill-rule="evenodd" clip-rule="evenodd" d="M128.943 82.219C151.647 82.219 170.052 63.8136 170.052 41.1095C170.052 18.4053 151.647 0 128.943 0C106.239 0 87.8333 18.4053 87.8333 41.1095C87.8333 63.8136 106.239 82.219 128.943 82.219ZM38.3066 203.68C59.4627 203.68 76.6132 186.529 76.6132 165.373C76.6132 144.217 59.4627 127.067 38.3066 127.067C17.1504 127.067 0 144.217 0 165.373C0 186.529 17.1504 203.68 38.3066 203.68ZM244.792 203.671C244.792 232.567 221.367 255.992 192.471 255.992C163.575 255.992 140.15 232.567 140.15 203.671C140.15 174.775 163.575 151.35 192.471 151.35C221.367 151.35 244.792 174.775 244.792 203.671ZM99.7062 85.621C97.1621 83.6582 93.5085 84.1294 91.5456 86.6735L67.8935 117.329C65.9306 119.873 66.4018 123.527 68.9459 125.49C71.49 127.453 75.1436 126.981 77.1065 124.437L100.759 93.7816C102.721 91.2375 102.25 87.5839 99.7062 85.621ZM147.166 99.2927C146.007 96.296 147.496 92.9266 150.493 91.7669C153.489 90.6072 156.859 92.0964 158.019 95.0931L172.358 132.147C173.518 135.144 172.029 138.513 169.032 139.673C166.035 140.833 162.666 139.344 161.506 136.347L147.166 99.2927ZM84.8006 173.606C83.9166 176.696 85.7044 179.917 88.7937 180.801L126.993 191.731C130.082 192.615 133.303 190.827 134.187 187.738C135.071 184.649 133.283 181.428 130.194 180.544L91.9949 169.613C88.9056 168.729 85.6846 170.517 84.8006 173.606Z" fill="#C4DEFF"/>
</svg>
