<svg width="24" height="24" viewBox="0 0 24 24" fill="none" xmlns="http://www.w3.org/2000/svg">
<path d="M5 7C5 5.34315 6.34315 4 8 4L16 4C17.6569 4 19 5.34315 19 7V7C19 8.65685 17.6569 10 16 10L8 10C6.34315 10 5 8.65685 5 7V7Z" stroke="#C4DEFF" />
<path d="M19 17C19 18.6569 17.6569 20 16 20L8 20C6.34315 20 5 18.6569 5 17V17C5 15.3431 6.34315 14 8 14L16 14C17.6569 14 19 15.3431 19 17V17Z" stroke="#C4DEFF" />
<path fill-rule="evenodd" clip-rule="evenodd" d="M17 17C17 17.5517 16.5523 17.999 16.0006 17.9994C15.4485 17.9997 15 17.5522 15 17C15 16.4483 15.4477 16.001 15.9994 16.0006C16.5515 16.0003 17 16.4478 17 17Z" fill="#C4DEFF" />
<path fill-rule="evenodd" clip-rule="evenodd" d="M9 7C9 7.55167 8.55232 7.99899 8.00065 7.99935C7.44847 7.99971 7 7.55218 7 7C7 6.44833 7.44768 6.00101 7.99935 6.00065C8.55153 6.00029 9 6.44782 9 7Z" fill="#C4DEFF" />
</svg>
