<svg width="40" height="40" viewBox="0 0 40 40" fill="none" xmlns="http://www.w3.org/2000/svg">
<circle cx="20" cy="20" r="19.5" stroke="#C4DEFF" stroke-opacity="0.2"/>
<path d="M25.1069 25.7642C25.1069 25.8996 25.0531 26.0295 24.9573 26.1252C24.8616 26.221 24.7317 26.2748 24.5963 26.2748H15.2886C15.1532 26.2748 15.0234 26.221 14.9276 26.1252C14.8319 26.0295 14.7781 25.8996 14.7781 25.7642C14.7781 25.6288 14.8319 25.4989 14.9276 25.4032C15.0234 25.3074 15.1532 25.2536 15.2886 25.2536H15.355C15.2997 23.8404 15.7324 22.4511 16.5804 21.3192C16.9685 20.9284 17.4133 20.5983 17.8997 20.3399C18.4572 20.0162 18.5879 19.9131 18.5879 19.6374C18.5879 19.3617 18.4572 19.2585 17.8997 18.9348C17.413 18.6773 16.9682 18.3474 16.5804 17.9566C15.7323 16.8243 15.2997 15.4347 15.355 14.0211H15.2886C15.1532 14.0211 15.0234 13.9673 14.9276 13.8716C14.8319 13.7758 14.7781 13.646 14.7781 13.5106C14.7781 13.3752 14.8319 13.2453 14.9276 13.1495C15.0234 13.0538 15.1532 13 15.2886 13H24.5963C24.7317 13 24.8616 13.0538 24.9573 13.1495C25.0531 13.2453 25.1069 13.3752 25.1069 13.5106C25.1069 13.646 25.0531 13.7758 24.9573 13.8716C24.8616 13.9673 24.7317 14.0211 24.5963 14.0211H24.58C24.6359 15.4348 24.2032 16.8246 23.3546 17.9566C22.967 18.3473 22.5226 18.6771 22.0363 18.9348C21.4777 19.2585 21.347 19.3617 21.347 19.6374C21.347 19.9131 21.4777 20.0162 22.0363 20.3399C22.5223 20.5984 22.9667 20.9285 23.3546 21.3192C24.2025 22.4512 24.6352 23.8404 24.58 25.2536H24.5963C24.6638 25.2536 24.7306 25.267 24.7929 25.293C24.8551 25.319 24.9117 25.357 24.9591 25.405C25.0066 25.4529 25.0441 25.5098 25.0695 25.5723C25.0948 25.6349 25.1075 25.7018 25.1069 25.7693V25.7642ZM16.3772 25.2536H23.5578C23.6075 24.1039 23.2762 22.97 22.6153 22.0279C22.2933 21.7091 21.9258 21.44 21.5247 21.2293C20.9631 20.9036 20.3259 20.535 20.3259 19.6425C20.3259 18.75 20.9631 18.3814 21.5247 18.0567C21.9258 17.8456 22.2933 17.5761 22.6153 17.2571C23.2774 16.3137 23.6088 15.1777 23.5578 14.0262H16.3782C16.3268 15.1777 16.6582 16.3138 17.3207 17.2571C17.6424 17.5765 18.01 17.846 18.4113 18.0567C18.9729 18.3824 19.6091 18.751 19.6091 19.6425C19.6091 20.5339 18.9729 20.9036 18.4113 21.2293C18.0102 21.44 17.6427 21.7091 17.3207 22.0279C16.6584 22.9713 16.3267 24.1072 16.3772 25.2587V25.2536ZM22.2896 23.6841H17.5923C17.4569 23.6841 17.327 23.7379 17.2313 23.8337C17.1356 23.9294 17.0818 24.0593 17.0818 24.1947C17.0818 24.3301 17.1356 24.46 17.2313 24.5557C17.327 24.6515 17.4569 24.7053 17.5923 24.7053H22.2896C22.425 24.7053 22.5548 24.6515 22.6506 24.5557C22.7463 24.46 22.8001 24.3301 22.8001 24.1947C22.8001 24.0593 22.7463 23.9294 22.6506 23.8337C22.5548 23.7379 22.425 23.6841 22.2896 23.6841Z" fill="#C4DEFF" fill-opacity="0.5"/>
</svg>
