<svg width="20" height="20" viewBox="0 0 20 20" fill="none" xmlns="http://www.w3.org/2000/svg">
<path fill-rule="evenodd" clip-rule="evenodd" d="M10.5 3.72559C10.5 3.44944 10.2762 3.22559 10 3.22559C9.72387 3.22559 9.50001 3.44944 9.50001 3.72559V9.49981H3.72559C3.44944 9.49981 3.22559 9.72367 3.22559 9.99981C3.22559 10.276 3.44944 10.4998 3.72559 10.4998H9.50001V16.2746C9.50001 16.5507 9.72387 16.7746 10 16.7746C10.2762 16.7746 10.5 16.5507 10.5 16.2746V10.4998H16.2746C16.5507 10.4998 16.7746 10.276 16.7746 9.99981C16.7746 9.72367 16.5507 9.49981 16.2746 9.49981H10.5V3.72559Z" fill="#C4DEFF" fill-opacity="0.2"/>
</svg>
