<svg width="12" height="12" viewBox="0 0 12 12" fill="none" xmlns="http://www.w3.org/2000/svg">
<path d="M5.99982 0C2.6862 0 0 2.68641 0 6C0 9.31383 2.6862 12 5.99982 12C9.31368 12 12 9.31383 12 6C12 2.68641 9.31368 0 5.99982 0ZM6.65138 9.82933C6.65138 9.95085 6.55207 10.0503 6.43043 10.0503H5.50365C5.38201 10.0503 5.2827 9.95085 5.2827 9.82933V8.9943C5.2827 8.8729 5.38213 8.77335 5.50365 8.77335H6.43043C6.55207 8.77335 6.65138 8.8729 6.65138 8.9943V9.82933ZM8.43433 4.98689C8.37933 5.17385 8.30596 5.33488 8.21446 5.47057C8.12284 5.60614 8.01849 5.72718 7.90129 5.83333C7.78398 5.93948 7.66678 6.04395 7.5497 6.14638C7.41041 6.26369 7.28204 6.37717 7.16508 6.48716C7.04764 6.59703 6.94497 6.71988 6.85731 6.8552C6.7693 6.99077 6.70145 7.15036 6.65402 7.33324C6.62328 7.45128 6.60503 7.58601 6.59158 7.73707C6.57236 7.95273 6.45456 8.00364 6.35754 8.00364C6.26027 8.00364 5.63333 8.00364 5.63333 8.00364C5.50257 8.00364 5.39858 7.89665 5.40206 7.76601C5.40206 7.76601 5.41203 7.40853 5.44517 7.18494C5.47795 6.96159 5.53103 6.76563 5.60464 6.59703C5.67764 6.42868 5.76734 6.28026 5.87374 6.1519C5.97977 6.02378 6.10621 5.89745 6.25283 5.77269C6.36991 5.67026 6.4817 5.57492 6.58821 5.48714C6.69437 5.39912 6.78959 5.30198 6.87377 5.19571C6.95782 5.08956 7.02387 4.97056 7.07166 4.83859C7.11921 4.70675 7.14287 4.54932 7.14287 4.36608C7.14287 4.1461 7.10456 3.95769 7.02747 3.79991C6.95086 3.64248 6.85731 3.51616 6.74744 3.4207C6.63745 3.32572 6.52013 3.25607 6.39561 3.212C6.27096 3.16805 6.16109 3.14608 6.06586 3.14608C5.61136 3.14608 5.27634 3.29449 5.06019 3.59121C4.89076 3.82392 4.80226 4.12016 4.7511 4.47475C4.7146 4.72812 4.56678 4.7836 4.4772 4.7836C4.38762 4.7836 3.72093 4.7836 3.72093 4.7836C3.59005 4.7836 3.49146 4.67685 3.50179 4.54644C3.50179 4.54644 3.54357 4.01425 3.66438 3.68451C3.7853 3.35477 3.96121 3.07295 4.19213 2.83843C4.4228 2.60416 4.70127 2.4226 5.02729 2.29435C5.35331 2.16623 5.71787 2.10211 6.12098 2.10211C6.45793 2.10211 6.77098 2.15158 7.06073 2.25053C7.35012 2.34947 7.60301 2.49224 7.81904 2.67897C8.03506 2.86593 8.20534 3.09853 8.32998 3.37699C8.4545 3.65557 8.51695 3.97042 8.51695 4.32225C8.51683 4.57838 8.48921 4.79993 8.43433 4.98689Z" fill="#C4DEFF" fill-opacity="0.2"/>
</svg>
