<svg width="16" height="16" viewBox="0 0 16 16" fill="none" xmlns="http://www.w3.org/2000/svg">
<circle cx="8" cy="8" r="7.5" stroke="#C4DEFF" stroke-opacity="0.2"/>
<path d="M7.40136 9.48639V9.44558C7.4059 9.01247 7.45125 8.6678 7.53742 8.41156C7.62358 8.15533 7.74603 7.94784 7.90476 7.78911C8.06349 7.63038 8.25397 7.48413 8.47619 7.35034C8.60998 7.26871 8.73016 7.17233 8.83673 7.06122C8.94331 6.94784 9.02721 6.81746 9.08844 6.67007C9.15193 6.52268 9.18367 6.35941 9.18367 6.18027C9.18367 5.95805 9.13152 5.76531 9.02721 5.60204C8.9229 5.43877 8.78345 5.31292 8.60884 5.22449C8.43424 5.13605 8.24036 5.09184 8.02721 5.09184C7.84127 5.09184 7.66213 5.13038 7.4898 5.20748C7.31746 5.28458 7.17347 5.4059 7.05782 5.57143C6.94218 5.73696 6.87528 5.95351 6.85714 6.22109H6C6.01814 5.8356 6.11791 5.50567 6.29932 5.23129C6.48299 4.95692 6.72449 4.74716 7.02381 4.60204C7.3254 4.45692 7.65986 4.38435 8.02721 4.38435C8.4263 4.38435 8.77324 4.46372 9.06803 4.62245C9.36508 4.78118 9.5941 4.99887 9.7551 5.27551C9.91837 5.55215 10 5.86735 10 6.22109C10 6.47052 9.96145 6.69614 9.88435 6.89796C9.80952 7.09977 9.70068 7.28004 9.55782 7.43877C9.41723 7.59751 9.24717 7.73809 9.04762 7.86054C8.84807 7.98526 8.68821 8.11678 8.56803 8.2551C8.44785 8.39116 8.36054 8.55329 8.30612 8.7415C8.2517 8.9297 8.22222 9.1644 8.21769 9.44558V9.48639H7.40136ZM7.83673 11.5C7.66893 11.5 7.52494 11.4399 7.40476 11.3197C7.28458 11.1995 7.22449 11.0556 7.22449 10.8878C7.22449 10.72 7.28458 10.576 7.40476 10.4558C7.52494 10.3356 7.66893 10.2755 7.83673 10.2755C8.00454 10.2755 8.14853 10.3356 8.26871 10.4558C8.38889 10.576 8.44898 10.72 8.44898 10.8878C8.44898 10.9989 8.42063 11.1009 8.36395 11.1939C8.30952 11.2868 8.23583 11.3617 8.14286 11.4184C8.05215 11.4728 7.95011 11.5 7.83673 11.5Z" fill="#C4DEFF" fill-opacity="0.5"/>
</svg>
