<svg width="20" height="20" viewBox="0 0 20 20" fill="none" xmlns="http://www.w3.org/2000/svg">
<path fill-rule="evenodd" clip-rule="evenodd" d="M18.6205 10.8904C18.7699 11.1634 18.9855 11.3944 19.2476 11.5621C19.5477 11.744 19.7778 12.0217 19.9009 12.3505C20.0239 12.6793 20.0327 13.0399 19.9257 13.3742C19.7813 13.7976 19.61 14.2113 19.4126 14.6128C19.2608 14.9254 19.008 15.1777 18.695 15.3287C18.3821 15.4798 18.0274 15.5208 17.6882 15.4452C17.3806 15.3724 17.0594 15.3795 16.7553 15.4658C16.4511 15.5522 16.1741 15.7149 15.9506 15.9385C15.727 16.1622 15.5644 16.4393 15.478 16.7435C15.3917 17.0478 15.3846 17.369 15.4574 17.6768C15.5325 18.0157 15.4912 18.3701 15.3402 18.6827C15.1892 18.9952 14.9374 19.2478 14.6253 19.3996C14.224 19.597 13.8105 19.7685 13.3872 19.9129C13.2291 19.9665 13.0633 19.9936 12.8964 19.9932C12.6289 19.9928 12.3659 19.9247 12.1318 19.7951C11.8978 19.6656 11.7004 19.4788 11.5579 19.2523C11.3903 18.9902 11.1594 18.7744 10.8865 18.625C10.6136 18.4756 10.3075 18.3973 9.99637 18.3973C9.68526 18.3973 9.37916 18.4756 9.10627 18.625C8.83337 18.7744 8.60245 18.9902 8.43479 19.2523C8.25124 19.5529 7.97155 19.7825 7.64111 19.904C7.31068 20.0256 6.94889 20.0318 6.61445 19.9218C6.19119 19.7774 5.77764 19.606 5.37634 19.4085C5.06426 19.2567 4.81241 19.0042 4.66144 18.6916C4.51047 18.379 4.46919 18.0247 4.54425 17.6857C4.61704 17.378 4.60993 17.0567 4.52362 16.7524C4.4373 16.4482 4.27463 16.1711 4.05108 15.9474C3.82753 15.7238 3.55052 15.5611 3.24638 15.4747C2.94225 15.3884 2.62109 15.3813 2.31343 15.4541C1.97462 15.5292 1.6204 15.4879 1.30794 15.3369C0.995478 15.1858 0.742996 14.9339 0.591239 14.6217C0.393926 14.2202 0.222545 13.8065 0.0781512 13.3831C-0.0318289 13.0486 -0.0255696 12.6867 0.0959139 12.3561C0.217397 12.0256 0.446976 11.7458 0.747397 11.5621C1.00946 11.3944 1.22511 11.1634 1.37449 10.8904C1.52386 10.6174 1.60216 10.3112 1.60216 10C1.60216 9.68878 1.52386 9.38257 1.37449 9.10957C1.22511 8.83658 1.00946 8.60558 0.747397 8.43786C0.446976 8.25424 0.217397 7.97445 0.0959139 7.64389C-0.0255696 7.31333 -0.0318289 6.95141 0.0781512 6.61685C0.222545 6.19345 0.393926 5.77975 0.591239 5.3783C0.743087 5.06566 0.995929 4.81341 1.30886 4.66235C1.6218 4.51129 1.97652 4.47026 2.31566 4.5459C2.62332 4.61871 2.94448 4.61161 3.24862 4.52526C3.55275 4.43891 3.82976 4.27619 4.05331 4.05255C4.27686 3.82892 4.43953 3.55181 4.52585 3.24756C4.61216 2.94332 4.61927 2.62204 4.54648 2.31427C4.47142 1.97534 4.51271 1.62099 4.66368 1.30842C4.81465 0.99584 5.06649 0.743266 5.37857 0.591454C5.77986 0.394013 6.19341 0.222568 6.61668 0.0781796C6.95112 -0.0318405 7.31291 -0.0255789 7.64334 0.0959488C7.97378 0.217476 8.25347 0.447139 8.43703 0.747668C8.60468 1.00982 8.8356 1.22556 9.1085 1.37499C9.38139 1.52442 9.68749 1.60274 9.9986 1.60274C10.3097 1.60274 10.6158 1.52442 10.8887 1.37499C11.1616 1.22556 11.3925 1.00982 11.5602 0.747668C11.7437 0.447139 12.0234 0.217476 12.3539 0.0959488C12.6843 -0.0255789 13.0461 -0.0318405 13.3805 0.0781796C13.8038 0.222597 14.2173 0.394041 14.6186 0.591454C14.9307 0.743266 15.1826 0.99584 15.3335 1.30842C15.4845 1.62099 15.5258 1.97534 15.4507 2.31427C15.3779 2.62204 15.385 2.94332 15.4713 3.24756C15.5577 3.55181 15.7203 3.82892 15.9439 4.05255C16.1674 4.27619 16.4444 4.43891 16.7486 4.52526C17.0527 4.61161 17.3739 4.61871 17.6815 4.5459C18.0203 4.47081 18.3746 4.51211 18.687 4.66314C18.9995 4.81416 19.252 5.0661 19.4037 5.3783C19.601 5.77975 19.7724 6.19345 19.9168 6.61685C20.0268 6.95141 20.0205 7.31333 19.8991 7.64389C19.7776 7.97445 19.548 8.25424 19.2476 8.43786C18.9855 8.60558 18.7699 8.83658 18.6205 9.10957C18.4711 9.38257 18.3928 9.68878 18.3928 10C18.3928 10.3112 18.4711 10.6174 18.6205 10.8904ZM18.5939 14.2267C18.774 13.8599 18.9305 13.482 19.0624 13.0953V13.0975C19.1083 12.9532 19.1039 12.7977 19.05 12.6563C18.9961 12.5148 18.8959 12.3958 18.7657 12.3187C18.3765 12.0704 18.0561 11.7281 17.8341 11.3232C17.6122 10.9183 17.4958 10.464 17.4958 10.0022C17.4958 9.54047 17.6122 9.08616 17.8341 8.68128C18.0561 8.27641 18.3765 7.93403 18.7657 7.6858C18.896 7.60822 18.996 7.4887 19.0495 7.3468C19.103 7.2049 19.1068 7.04904 19.0602 6.90473C18.9283 6.51799 18.7718 6.14008 18.5917 5.7733C18.5304 5.64183 18.4267 5.53486 18.2971 5.46966C18.1676 5.40447 18.0199 5.38486 17.8778 5.414C17.4213 5.52304 16.9443 5.51318 16.4926 5.38534C16.0409 5.25751 15.6295 5.01598 15.2977 4.68382C14.9659 4.35165 14.7247 3.93994 14.5973 3.48799C14.4698 3.03605 14.4602 2.55895 14.5695 2.10227C14.5992 1.95984 14.5799 1.81156 14.5147 1.68151C14.4495 1.55146 14.3422 1.44729 14.2104 1.38591C13.8438 1.20555 13.466 1.04901 13.0794 0.917272C12.9351 0.870649 12.7793 0.874404 12.6374 0.927919C12.4956 0.981435 12.3761 1.08154 12.2986 1.21185C12.0503 1.60073 11.7082 1.9208 11.3037 2.14251C10.8992 2.36423 10.4453 2.48045 9.9841 2.48045C9.52285 2.48045 9.06904 2.36423 8.66454 2.14251C8.26003 1.9208 7.91787 1.60073 7.66962 1.21185C7.59207 1.08154 7.47259 0.981435 7.33074 0.927919C7.1889 0.874404 7.03309 0.870649 6.88884 0.917272C6.50214 1.04898 6.12435 1.20552 5.75781 1.38591C5.62595 1.44729 5.51871 1.55146 5.45351 1.68151C5.38831 1.81156 5.36897 1.95984 5.39865 2.10227C5.50703 2.55865 5.49679 3.03519 5.36889 3.48649C5.241 3.93779 4.99972 4.34881 4.66803 4.68039C4.33635 5.01197 3.92531 5.25307 3.47409 5.38071C3.02287 5.50834 2.54649 5.51827 2.09035 5.40954C1.94797 5.37985 1.79975 5.39919 1.66975 5.46442C1.53975 5.52964 1.43561 5.63692 1.37426 5.76883C1.19418 6.13561 1.0377 6.51353 0.905784 6.90027C0.859179 7.04458 0.862932 7.20044 0.916428 7.34234C0.969924 7.48423 1.06999 7.60376 1.20025 7.68134C1.58948 7.92957 1.90987 8.27194 2.13183 8.67682C2.35378 9.08169 2.47014 9.53601 2.47014 9.99777C2.47014 10.4595 2.35378 10.9138 2.13183 11.3187C1.90987 11.7236 1.58948 12.066 1.20025 12.3142C1.06999 12.3918 0.969924 12.5113 0.916428 12.6532C0.862932 12.7951 0.859179 12.951 0.905784 13.0953C1.0377 13.482 1.19418 13.8599 1.37426 14.2267C1.43552 14.3582 1.5393 14.4651 1.66883 14.5303C1.79836 14.5955 1.94608 14.6151 2.08812 14.586C2.54471 14.477 3.02162 14.4868 3.47332 14.6147C3.92502 14.7425 4.33642 14.984 4.66824 15.3162C5.00006 15.6483 5.24122 16.0601 5.36871 16.512C5.49619 16.964 5.50573 17.441 5.39642 17.8977C5.36674 18.0402 5.38607 18.1884 5.45128 18.3185C5.51648 18.4485 5.62372 18.5527 5.75558 18.6141C6.12216 18.7944 6.49995 18.9509 6.88661 19.0827C7.03086 19.1293 7.18667 19.1256 7.32851 19.0721C7.47036 19.0186 7.58984 18.9185 7.66739 18.7882C7.91564 18.3993 8.2578 18.0792 8.66231 17.8575C9.06681 17.6358 9.52062 17.5196 9.98187 17.5196C10.4431 17.5196 10.8969 17.6358 11.3014 17.8575C11.7059 18.0792 12.0481 18.3993 12.2963 18.7882C12.3739 18.9185 12.4934 19.0186 12.6352 19.0721C12.7771 19.1256 12.9329 19.1293 13.0771 19.0827C13.4638 18.9509 13.8416 18.7944 14.2082 18.6141C14.3398 18.5524 14.4468 18.4482 14.5119 18.3182C14.5771 18.1883 14.5966 18.0401 14.5673 17.8977C14.4578 17.4408 14.4674 16.9635 14.5949 16.5113C14.7225 16.0591 14.9639 15.6472 15.296 15.315C15.6281 14.9827 16.0399 14.7413 16.4919 14.6136C16.9439 14.486 17.4211 14.4765 17.8778 14.586C18.0202 14.6157 18.1684 14.5963 18.2985 14.5311C18.4285 14.4659 18.5326 14.3586 18.5939 14.2267ZM7.68024 6.5515C8.36185 6.09589 9.16322 5.85271 9.983 5.85271C11.0819 5.85389 12.1355 6.29112 12.9125 7.06846C13.6896 7.8458 14.1267 8.89976 14.1279 9.99908C14.1279 10.8192 13.8848 11.6208 13.4293 12.3027C12.9739 12.9845 12.3265 13.516 11.5692 13.8298C10.8118 14.1436 9.9784 14.2258 9.17437 14.0658C8.37035 13.9058 7.63181 13.5109 7.05214 12.931C6.47247 12.3511 6.07771 11.6123 5.91778 10.808C5.75785 10.0037 5.83993 9.16998 6.15365 8.41233C6.46736 7.65468 6.99862 7.00711 7.68024 6.5515ZM8.17622 12.7068C8.71105 13.0643 9.3398 13.255 9.983 13.255V13.2528C10.8453 13.2516 11.6719 12.9084 12.2816 12.2985C12.8913 11.6886 13.2343 10.8617 13.2355 9.99908C13.2351 9.35565 13.044 8.7268 12.6863 8.19202C12.3286 7.65724 11.8205 7.24055 11.2261 6.99463C10.6318 6.74871 9.97787 6.68459 9.34709 6.81039C8.71631 6.93619 8.13697 7.24625 7.68232 7.70138C7.22767 8.1565 6.91812 8.73627 6.7928 9.36736C6.66748 9.99846 6.73202 10.6526 6.97826 11.247C7.2245 11.8414 7.64139 12.3494 8.17622 12.7068Z" fill="#C4DEFF" fill-opacity="0.5"/>
</svg>
