<svg width="18" height="18" viewBox="0 0 18 18" fill="none" xmlns="http://www.w3.org/2000/svg">
<path fill-rule="evenodd" clip-rule="evenodd" d="M9 18C13.9706 18 18 13.9706 18 9C18 4.02944 13.9706 0 9 0C4.02944 0 0 4.02944 0 9C0 13.9706 4.02944 18 9 18ZM13.3355 4.6644C13.5547 4.88361 13.5547 5.23902 13.3355 5.45822L9.79381 8.99996L13.3356 12.5418C13.5548 12.761 13.5548 13.1164 13.3356 13.3356C13.1164 13.5548 12.761 13.5548 12.5418 13.3356L9 9.79377L5.45822 13.3356C5.23901 13.5548 4.88361 13.5548 4.6644 13.3356C4.4452 13.1164 4.4452 12.761 4.6644 12.5418L8.20619 8.99996L4.66449 5.45822C4.44529 5.23902 4.44529 4.88361 4.66449 4.6644C4.8837 4.4452 5.2391 4.4452 5.4583 4.6644L9 8.20614L12.5417 4.6644C12.7609 4.4452 13.1163 4.4452 13.3355 4.6644Z" fill="#C4DEFF" />
</svg>
