<svg width="16" height="16" viewBox="0 0 16 16" fill="none" xmlns="http://www.w3.org/2000/svg">
<circle cx="8" cy="8" r="7.5" stroke="#E1457C" stroke-opacity="0.2"/>
<path d="M9.28378 6.1146C9.45862 5.9618 9.72089 5.9618 9.87387 6.1146C10.0487 6.26739 10.0487 6.52933 9.83016 6.70396L8.54069 7.99181L9.83016 9.27967C9.98315 9.45429 9.98315 9.71623 9.83016 9.86903C9.7646 9.95634 9.63346 10 9.54604 10C9.45862 10 9.34934 9.95634 9.26192 9.86903L7.97245 8.58117L6.68298 9.86903C6.61741 9.95634 6.48628 10 6.39886 10C6.31144 10 6.20216 9.95634 6.11474 9.86903C5.96175 9.69441 5.96175 9.43247 6.11474 9.27967L7.40421 7.99181L6.11474 6.70396C5.96175 6.52933 5.96175 6.26739 6.11474 6.1146C6.28958 5.9618 6.55185 5.9618 6.70484 6.1146L7.99431 7.40245L9.28378 6.1146Z" fill="#E1457C" fill-opacity="0.5"/>
</svg>
