<svg width="40" height="40" viewBox="0 0 40 40" fill="none" xmlns="http://www.w3.org/2000/svg">
<path d="M3.70925 27.5806C3.92428 28.0645 3.70926 28.7097 3.22544 28.9247C3.06417 28.9785 2.95665 29.0322 2.79538 29.0322C2.41908 29.0322 2.04278 28.8172 1.88151 28.4409C1.66648 27.957 1.8815 27.3118 2.36532 27.0968C2.90289 26.8817 3.49422 27.0968 3.70925 27.5806ZM4.30059 9.30107C4.46186 9.46237 4.67688 9.51613 4.89191 9.51613C5.21446 9.51613 5.48324 9.35484 5.69827 9.13978C6.02082 8.70968 5.96706 8.06451 5.48325 7.74193C5.05319 7.41935 4.4081 7.47312 4.0318 7.95699C3.76301 8.33333 3.87053 8.97849 4.30059 9.30107ZM4.30059 30.7527C3.87053 31.0753 3.76301 31.7204 4.08555 32.1505C4.30058 32.4193 4.56937 32.5269 4.89191 32.5269C5.10694 32.5269 5.32197 32.4731 5.48325 32.3118C5.91331 31.9892 6.02082 31.3441 5.69827 30.914C5.37573 30.4839 4.7844 30.3763 4.30059 30.7527ZM11.6653 35.914C11.1815 35.6452 10.5364 35.8602 10.2676 36.3441C9.99886 36.8279 10.2139 37.4731 10.6977 37.7419C10.859 37.8495 11.0203 37.8495 11.1815 37.8495C11.5578 37.8495 11.8804 37.6344 12.0954 37.3118C12.3104 36.7742 12.1492 36.1828 11.6653 35.914ZM2.47283 23.9247C2.36532 23.3871 1.82775 23.0107 1.23642 23.172C0.698847 23.2796 0.322541 23.8172 0.483813 24.4086C0.591327 24.8925 1.02139 25.2151 1.45145 25.2151C1.5052 25.2151 1.61272 25.2151 1.66647 25.2151C2.2578 25 2.58035 24.4624 2.47283 23.9247ZM11.1278 4.19355C11.289 4.19355 11.4503 4.13978 11.6116 4.08602C12.0954 3.8172 12.3104 3.22581 12.0416 2.68817C11.7729 2.2043 11.1815 1.98925 10.644 2.25806C10.1601 2.52688 9.94511 3.11828 10.2139 3.65592C10.4289 4.03226 10.7515 4.19355 11.1278 4.19355ZM6.98845 33.871C6.61215 34.3011 6.66591 34.9462 7.09597 35.3226C7.311 35.4839 7.52602 35.5376 7.74105 35.5376C8.00984 35.5376 8.33239 35.4301 8.49366 35.1613C8.86996 34.7312 8.8162 34.086 8.38614 33.7097C8.00984 33.3871 7.36475 33.4408 6.98845 33.871ZM7.74105 6.50537C7.95608 6.50537 8.22487 6.45161 8.38614 6.29032C8.8162 5.91398 8.86996 5.26882 8.49366 4.83871C8.11736 4.4086 7.47226 4.35484 7.04221 4.73118C6.61215 5.10753 6.55839 5.75269 6.93469 6.18279C7.14972 6.39785 7.47227 6.50537 7.74105 6.50537ZM37.0926 14.2473C37.2538 14.6774 37.6301 14.9462 38.0602 14.9462C38.1677 14.9462 38.2752 14.9462 38.3827 14.8925C38.9203 14.7312 39.1891 14.1398 39.0278 13.6021C38.8666 13.0645 38.2752 12.7957 37.7376 12.957C37.2001 13.1183 36.9313 13.7097 37.0926 14.2473ZM38.8666 16.9355C38.329 16.9892 37.8989 17.4731 37.9527 18.0645C38.0064 18.6021 38.4365 18.9785 38.9741 18.9785C39.0278 18.9785 39.0278 18.9785 39.0816 18.9785C39.6192 18.9247 40.0492 18.4409 39.9955 17.8495C39.8879 17.2581 39.4041 16.828 38.8666 16.9355ZM22.9544 2.25806C23.0081 2.25806 23.0619 2.25806 23.1157 2.25806C23.5995 2.25806 24.0295 1.88172 24.137 1.39784C24.2446 0.86021 23.8683 0.322577 23.2769 0.21505C22.7394 0.107524 22.2018 0.483871 22.0943 1.07527C22.0405 1.6129 22.4168 2.15054 22.9544 2.25806ZM1.23642 16.8817C1.29018 16.8817 1.39769 16.8817 1.45145 16.8817C1.93526 16.8817 2.36532 16.5591 2.41908 16.0753C2.52659 15.5376 2.20405 15 1.66647 14.8925C1.1289 14.7849 0.591327 15.1075 0.483813 15.6452C0.376298 16.2366 0.698847 16.7742 1.23642 16.8817ZM2.04278 20.0538C2.04278 20.0538 2.04278 20 2.04278 20.0538C2.04278 20 2.04278 20 2.04278 20.0538C2.04278 19.4624 1.61272 18.9785 1.02139 18.9785C0.483813 18.9785 0 19.4086 0 20C0 20.5376 0.483813 21.0215 1.02139 21.0215C1.61272 21.0753 2.04278 20.5914 2.04278 20.0538ZM2.36532 12.957C2.52659 13.0107 2.63411 13.0645 2.79538 13.0645C3.17168 13.0645 3.54798 12.8495 3.70925 12.4731C3.92428 11.9892 3.70926 11.3441 3.22544 11.129C2.74162 10.914 2.09654 11.129 1.88151 11.6129C1.61272 12.0968 1.82775 12.6882 2.36532 12.957ZM19.0301 2.04301H19.0839C19.6214 1.98925 20.0515 1.55914 20.0515 0.967743C19.9977 0.430109 19.5677 0 18.9763 0C18.4388 0.0537634 18.0087 0.483871 18.0087 1.07527C18.0087 1.6129 18.4925 2.04301 19.0301 2.04301ZM38.3827 25.1075C37.8452 24.9462 37.2538 25.2151 37.0926 25.7527C36.9313 26.2903 37.2001 26.8817 37.7376 27.043C37.8452 27.0968 37.9527 27.0968 38.0602 27.0968C38.4902 27.0968 38.8666 26.8279 39.0278 26.3978C39.2429 25.8602 38.9203 25.2688 38.3827 25.1075ZM30.1579 5.10753C30.3191 5.21505 30.5342 5.26882 30.7492 5.26882C31.0717 5.26882 31.3943 5.10753 31.6093 4.83871C31.9319 4.35484 31.8243 3.76344 31.3405 3.44086C30.8567 3.11828 30.2654 3.2258 29.9428 3.70967C29.5665 4.13978 29.674 4.78495 30.1579 5.10753ZM33.8671 7.90322C34.1359 7.90322 34.3509 7.7957 34.566 7.63441C34.996 7.25806 34.996 6.6129 34.6197 6.18279C34.2434 5.75269 33.5983 5.75268 33.1683 6.12903C32.7382 6.50537 32.7382 7.15053 33.1145 7.58064C33.3295 7.79569 33.5983 7.90322 33.8671 7.90322ZM14.9445 2.68817C15.0521 2.68817 15.1058 2.68817 15.2133 2.6344C15.7509 2.47311 16.0734 1.93548 15.9122 1.39784C15.7509 0.86021 15.2133 0.537636 14.6758 0.698926C14.1382 0.860217 13.8156 1.39784 13.9769 1.93548C14.0844 2.41935 14.5145 2.68817 14.9445 2.68817ZM33.1145 32.3656C32.7382 32.7957 32.7382 33.4409 33.1683 33.8172C33.3833 33.9785 33.5983 34.086 33.8671 34.086C34.1359 34.086 34.4047 33.9785 34.6197 33.7634C34.996 33.3333 34.996 32.6882 34.566 32.3118C34.1359 31.9355 33.4908 31.9355 33.1145 32.3656ZM39.0816 21.0215C38.544 20.9677 38.0064 21.3441 37.9527 21.9355C37.8989 22.4731 38.2752 23.0108 38.8666 23.0645C38.9203 23.0645 38.9203 23.0645 38.9741 23.0645C39.5116 23.0645 39.9417 22.6882 39.9955 22.1505C40.0492 21.5591 39.6192 21.0753 39.0816 21.0215ZM36.8775 28.9247C36.3937 28.6559 35.7486 28.7634 35.4798 29.2473C35.2111 29.7312 35.3186 30.3763 35.8024 30.6451C35.9637 30.7527 36.1249 30.8064 36.34 30.8064C36.6625 30.8064 37.0388 30.6452 37.2001 30.3226C37.5226 29.8387 37.3613 29.1935 36.8775 28.9247ZM36.34 11.1828C36.5012 11.1828 36.7163 11.129 36.8775 11.0215C37.3613 10.7527 37.5226 10.1075 37.2001 9.62365C36.9313 9.13978 36.2862 8.97849 35.8024 9.30107C35.3186 9.56989 35.1573 10.215 35.4798 10.6989C35.6411 11.0215 36.0174 11.1828 36.34 11.1828ZM30.1579 34.8925C29.674 35.2151 29.5665 35.8602 29.8891 36.2903C30.1041 36.5591 30.4266 36.7204 30.7492 36.7204C30.9642 36.7204 31.1255 36.6667 31.3405 36.5591C31.8243 36.2365 31.9319 35.5914 31.6093 35.1613C31.2868 34.6774 30.6417 34.5699 30.1579 34.8925ZM23.0081 37.7419C22.4706 37.8495 22.0943 38.3333 22.148 38.9247C22.2555 39.4086 22.6856 39.7849 23.1694 39.7849C23.2232 39.7849 23.2769 39.7849 23.3307 39.7849C23.8683 39.6774 24.2446 39.1935 24.1908 38.6021C24.0833 38.0645 23.5457 37.6882 23.0081 37.7419ZM19.0839 37.957C18.5463 37.9032 18.0625 38.3333 18.0087 38.9247C17.955 39.4624 18.385 39.9462 18.9763 40H19.0301C19.5677 40 19.9977 39.5699 20.0515 39.0322C20.1052 38.4946 19.6752 38.0107 19.0839 37.957ZM26.7174 36.7204C26.1798 36.9355 25.9648 37.5269 26.1261 38.0645C26.2873 38.4409 26.6636 38.7097 27.0937 38.7097C27.2012 38.7097 27.3625 38.7097 27.47 38.6559C28.0076 38.4409 28.2226 37.8495 28.0613 37.3118C27.8463 36.7742 27.255 36.5054 26.7174 36.7204ZM15.2671 37.3656C14.7295 37.2043 14.1919 37.5269 14.0307 38.0645C13.8694 38.6021 14.1919 39.1398 14.7295 39.3011C14.837 39.3011 14.8908 39.3548 14.9983 39.3548C15.4284 39.3548 15.8584 39.0323 15.9659 38.6021C16.1272 38.0645 15.8047 37.5269 15.2671 37.3656ZM26.7174 3.27956C26.8249 3.33333 26.9862 3.33333 27.0937 3.33333C27.5238 3.33333 27.9001 3.06452 28.0613 2.68817C28.2764 2.15054 28.0076 1.55914 27.47 1.34409C26.9324 1.12903 26.3411 1.39784 26.1261 1.93548C25.911 2.47311 26.1798 3.06451 26.7174 3.27956ZM24.7284 15.3226C24.3521 14.9462 23.707 14.9462 23.2769 15.3226L20.1052 18.4946L16.9336 15.3226C16.5573 14.9462 15.9122 14.9462 15.4821 15.3226C15.1058 15.6989 15.1058 16.3441 15.4821 16.7742L18.6538 19.9462L15.4821 23.1183C15.1058 23.4946 15.1058 24.1398 15.4821 24.5699C15.6971 24.7849 15.9659 24.8925 16.181 24.8925C16.396 24.8925 16.7185 24.7849 16.8798 24.5699L20.0515 21.3978L23.2232 24.5699C23.4382 24.7849 23.707 24.8925 23.922 24.8925C24.137 24.8925 24.4596 24.7849 24.6209 24.5699C24.9972 24.1935 24.9972 23.5484 24.6209 23.1183L21.4492 19.9462L24.6209 16.7742C25.1584 16.3441 25.1584 15.6989 24.7284 15.3226Z" fill="#E1457C"/>
</svg>
