<svg width="40" height="40" viewBox="0 0 40 40" fill="none" xmlns="http://www.w3.org/2000/svg">
<path d="M8.72681 18.2716L5.03276 21.9922C4.8614 22.1641 4.64721 22.25 4.47586 22.25C4.3045 22.25 4.04747 22.1641 3.91895 21.9922L0.224903 18.2716C-0.0749676 17.9708 -0.0749676 17.4552 0.224903 17.1114C0.524773 16.8107 1.03884 16.8107 1.38154 17.1114L3.66192 19.4141C3.66192 10.3477 11.0302 3 20.0691 3C20.4975 3 20.883 3.34375 20.883 3.8164C20.883 3.90234 20.883 3.98828 20.8402 4.03125C20.7545 4.375 20.4547 4.63281 20.0691 4.63281C11.9298 4.63281 5.28979 11.293 5.28979 19.457L7.613 17.1114C7.91287 16.8107 8.42694 16.8107 8.76965 17.1114C9.06952 17.4552 9.06952 17.9708 8.72681 18.2716ZM39.7848 20.7284L36.0907 17.0078C35.7909 16.707 35.2768 16.707 34.9341 17.0078L31.2401 20.7284C30.9402 21.0292 30.9402 21.5448 31.2401 21.8886C31.4114 22.0604 31.6256 22.1464 31.797 22.1464C31.9683 22.1464 32.2253 22.0604 32.3539 21.8886L34.6771 19.543C34.6771 27.707 28.0371 34.3672 19.8978 34.3672C19.4694 34.3672 19.0838 34.7109 19.0838 35.1836C19.0838 35.6562 19.4265 36 19.8978 36C28.9367 36 36.3049 28.6523 36.3049 19.5859L38.5853 21.8886C38.7567 22.0604 38.9709 22.1464 39.1422 22.1464C39.3136 22.1464 39.5706 22.0604 39.6991 21.8886C40.0847 21.5448 40.0847 21.0292 39.7848 20.7284Z" fill="#FFFFFF"/>
<path d="M29.7136 7.27022C29.5379 7.27022 29.3623 7.18246 29.2306 7.09471C28.8355 6.83145 28.7477 6.34882 29.055 5.95393C29.3184 5.60292 29.8014 5.51517 30.1965 5.77842C30.5477 6.04168 30.6355 6.52432 30.3721 6.91921C30.2404 7.13859 29.977 7.27022 29.7136 7.27022Z" fill="#FFFFFF"/>
<path d="M32.7429 9.24465C32.5673 9.37628 32.3917 9.46403 32.1722 9.46403C31.9527 9.46403 31.7332 9.37628 31.5575 9.20077C31.2502 8.84976 31.2502 8.32325 31.6014 8.01612C31.9527 7.70898 32.4795 7.70898 32.7869 8.05999C33.0942 8.411 33.0942 8.93752 32.7429 9.24465Z" fill="#FFFFFF"/>
<path d="M34.5869 12.0089C34.4552 12.0966 34.2796 12.1405 34.1479 12.1405C33.8845 12.1405 33.5771 11.965 33.4454 11.7017C33.2259 11.3068 33.3576 10.7803 33.7527 10.5609C34.1479 10.3416 34.6747 10.4732 34.8942 10.8681C35.1138 11.263 34.9821 11.7895 34.5869 12.0089Z" fill="#FFFFFF"/>
<path d="M26.8598 5.6468C26.7281 5.6468 26.5964 5.60292 26.5086 5.55904C26.0695 5.38354 25.8939 4.85703 26.0695 4.50602C26.2451 4.06725 26.7281 3.89175 27.1671 4.06725C27.6062 4.24276 27.7818 4.7254 27.6062 5.16416C27.4745 5.47129 27.1671 5.6468 26.8598 5.6468Z" fill="#FFFFFF"/>
<path d="M13.5568 33.8592C13.7325 33.4643 14.2154 33.2449 14.6545 33.4205C15.0935 33.596 15.2691 34.0786 15.0496 34.4735C14.9618 34.8245 14.6105 35 14.3032 35C14.2154 35 14.0837 35 13.9959 34.9561C13.6008 34.7806 13.3812 34.298 13.5568 33.8592Z" fill="#FFFFFF"/>
<path d="M8.24445 31.095C7.93712 30.744 7.93712 30.2175 8.28835 29.9104C8.63959 29.5593 9.16643 29.6032 9.42986 29.9542C9.78109 30.3052 9.78109 30.8318 9.42986 31.1389C9.25424 31.2705 9.07862 31.3583 8.8591 31.3583C8.63958 31.3583 8.42006 31.2705 8.24445 31.095Z" fill="#FFFFFF"/>
<path d="M6.13705 28.3308C5.87362 27.9359 6.00534 27.4533 6.40048 27.19C6.79561 26.9268 7.27855 27.0584 7.54198 27.4533C7.7615 27.8482 7.67369 28.3308 7.27856 28.5941C7.14685 28.6818 6.97123 28.7257 6.83952 28.7257C6.57609 28.7257 6.31266 28.5941 6.13705 28.3308Z" fill="#FFFFFF"/>
<path d="M10.747 32.148C11.0104 31.7532 11.4934 31.6654 11.8885 31.9287C12.2397 32.1919 12.3714 32.7184 12.1519 33.0694C11.9763 33.2888 11.7129 33.4205 11.4494 33.4205C11.2738 33.4205 11.0982 33.3766 10.9665 33.2888C10.5714 33.0256 10.4836 32.5429 10.747 32.148Z" fill="#FFFFFF"/>
</svg>
