<svg width="16" height="16" viewBox="0 0 16 16" fill="none" xmlns="http://www.w3.org/2000/svg">
<g clip-path="url(#clip0)">
<path fill-rule="evenodd" clip-rule="evenodd" d="M8 14C11.3137 14 14 11.3137 14 8C14 4.68629 11.3137 2 8 2C4.68629 2 2 4.68629 2 8C2 11.3137 4.68629 14 8 14ZM8 16C12.4183 16 16 12.4183 16 8C16 3.58172 12.4183 0 8 0C3.58172 0 0 3.58172 0 8C0 12.4183 3.58172 16 8 16Z" fill="#C4DEFF" fill-opacity="0.2"/>
<path fill-rule="evenodd" clip-rule="evenodd" d="M12.2426 3.75759C9.89949 1.41444 6.10051 1.41444 3.75736 3.75759C1.41421 6.10073 1.41421 9.89972 3.75736 12.2429C4.14788 12.6334 4.14788 13.2666 3.75736 13.6571C3.36683 14.0476 2.73367 14.0476 2.34315 13.6571C-0.781048 10.5329 -0.781049 5.46757 2.34315 2.34338C5.46734 -0.780818 10.5327 -0.780817 13.6569 2.34338C14.0474 2.7339 14.0474 3.36707 13.6569 3.75759C13.2663 4.14812 12.6332 4.14811 12.2426 3.75759Z" fill="#2988DF"/>
</g>
<defs>
<clipPath id="clip0">
<rect width="16" height="16" fill="white"/>
</clipPath>
</defs>
</svg>
