<svg width="20" height="20" viewBox="0 0 20 20" fill="none" xmlns="http://www.w3.org/2000/svg">
<path fill-rule="evenodd" clip-rule="evenodd" d="M10 18.5714C14.7339 18.5714 18.5714 14.7339 18.5714 10C18.5714 5.26613 14.7339 1.42857 10 1.42857C5.26613 1.42857 1.42857 5.26613 1.42857 10C1.42857 14.7339 5.26613 18.5714 10 18.5714ZM10 20C15.5228 20 20 15.5228 20 10C20 4.47715 15.5228 0 10 0C4.47715 0 0 4.47715 0 10C0 15.5228 4.47715 20 10 20Z" fill="white"/>
<path fill-rule="evenodd" clip-rule="evenodd" d="M9.9999 8.21415C10.5916 8.21415 11.0713 7.73445 11.0713 7.14272C11.0713 6.55098 10.5916 6.07129 9.9999 6.07129C9.40816 6.07129 8.92847 6.55098 8.92847 7.14272C8.92847 7.73445 9.40816 8.21415 9.9999 8.21415ZM6.42847 9.99986H9.28561H10.7142H13.5713V11.4284H10.7142V14.9999L9.28561 14.9999L9.28561 11.4284H6.42847V9.99986Z" fill="white"/>
</svg>
