<svg width="30" height="28" viewBox="0 0 30 28" fill="none" xmlns="http://www.w3.org/2000/svg">
<path fill-rule="evenodd" clip-rule="evenodd" d="M13.5192 22.1743C13.0234 22.2477 12.5162 22.2857 12 22.2857C6.31936 22.2857 1.71429 17.6806 1.71429 12C1.71429 6.31936 6.31936 1.71429 12 1.71429C17.2747 1.71429 21.6221 5.68476 22.2165 10.8C22.7915 10.8015 23.3738 10.8586 23.9569 10.9752C23.4369 4.82746 18.2822 0 12 0C5.37258 0 0 5.37258 0 12C0 18.6274 5.37258 24 12 24C12.7319 24 13.4484 23.9345 14.1441 23.809C13.8843 23.2874 13.6744 22.74 13.5192 22.1743ZM11.9999 8.65698C12.71 8.65698 13.2856 8.08134 13.2856 7.37126C13.2856 6.66118 12.71 6.08555 11.9999 6.08555C11.2898 6.08555 10.7142 6.66118 10.7142 7.37126C10.7142 8.08134 11.2898 8.65698 11.9999 8.65698ZM7.71416 10.8H11.1426H12.8569H16.2856V12.5143H12.8569V16.8H11.1426V12.5143H7.71416V10.8Z" fill="white"/>
<path d="M29.7664 21.6869C28.7245 25.8655 24.4919 28.4085 20.3123 27.3665C16.1345 26.3247 13.5912 22.0923 14.6336 17.9139C15.675 13.7349 19.9076 11.1916 24.086 12.2334C28.2653 13.2752 30.8083 17.5081 29.7664 21.6869Z" fill="#354D70"/>
<path d="M22.1501 22.5926V25.2862L18.7786 20.6544L22.1501 22.5926Z" fill="#EECBC1" stroke="#4B4A85" stroke-width="0.1"/>
<path d="M22.2501 22.5926V25.2862L25.6215 20.6544L22.2501 22.5926Z" fill="#CAB4F5" stroke="#4B4A85" stroke-width="0.1"/>
<path d="M22.2501 21.7757L25.6905 19.8315L22.2501 18.2441V21.7757Z" fill="#C8B2F4" stroke="#4B4A85" stroke-width="0.1"/>
<path d="M22.1501 21.7757L18.7097 19.8315L22.1501 18.2441V21.7757Z" fill="#88AAF1" stroke="#4B4A85" stroke-width="0.1"/>
<path d="M22.2502 18.1817V14.2151L25.6713 19.715L22.2502 18.1817Z" fill="#B6F8F4" stroke="#4B4A85" stroke-width="0.1"/>
<path d="M22.1502 18.1817V14.2151L18.7291 19.715L22.1502 18.1817Z" fill="#EECBC1" stroke="#4B4A85" stroke-width="0.1"/>
</svg>
