<svg width="20" height="20" viewBox="0 0 20 20" fill="none" xmlns="http://www.w3.org/2000/svg">
<path fill-rule="evenodd" clip-rule="evenodd" d="M3.66169 1.51291L0.0149924 9.06048C0.00111566 9.08855 -0.00328179 9.12026 0.00244313 9.15097C0.00816806 9.18168 0.023715 9.20979 0.0468105 9.23117L9.89568 18.5304C9.92365 18.5568 9.96091 18.5715 9.99967 18.5715C10.0384 18.5715 10.0757 18.5568 10.1037 18.5304L19.9525 9.23175C19.9756 9.21037 19.9912 9.18226 19.9969 9.15155C20.0026 9.12084 19.9982 9.08913 19.9844 9.06106L16.3377 1.51349C16.3259 1.48814 16.307 1.46667 16.2831 1.45163C16.2593 1.4366 16.2316 1.42865 16.2033 1.42872H3.79722C3.76879 1.42837 3.74087 1.43614 3.71683 1.45107C3.69278 1.46601 3.67363 1.48749 3.66169 1.51291Z" fill="#354D70"/>
<path fill-rule="evenodd" clip-rule="evenodd" d="M11.2649 9.83579C11.1942 9.84102 10.8289 9.8625 10.014 9.8625C9.36588 9.8625 8.9057 9.84334 8.74425 9.83579C6.23946 9.72723 4.36986 9.29759 4.36986 8.7832C4.36986 8.2688 6.23946 7.83975 8.74425 7.72944V9.4079C8.90805 9.41952 9.37708 9.4468 10.0252 9.4468C10.803 9.4468 11.1925 9.41487 11.2626 9.40849V7.7306C13.7621 7.84033 15.6276 8.26996 15.6276 8.7832C15.6276 9.29643 13.7627 9.72606 11.2626 9.83521L11.2649 9.83579ZM11.2649 7.55701V6.05504H14.7531V3.76465H5.25605V6.05504H8.74366V7.55643C5.90891 7.68474 3.7771 8.23803 3.7771 8.90106C3.7771 9.56408 5.90891 10.1168 8.74366 10.2457V15.0587H11.2644V10.2439C14.0926 10.1156 16.2209 9.56292 16.2209 8.90048C16.2209 8.23803 14.0944 7.68532 11.2644 7.55643L11.2649 7.55701Z" fill="#C4DEFF" fill-opacity="0.5"/>
</svg>
