<svg width="25" height="23" viewBox="0 0 25 23" fill="none" xmlns="http://www.w3.org/2000/svg">
<path fill-rule="evenodd" clip-rule="evenodd" d="M0.0149924 9.06048L3.66169 1.51291C3.67363 1.48749 3.69278 1.46601 3.71683 1.45107C3.74087 1.43614 3.76879 1.42837 3.79722 1.42872H16.2033C16.2316 1.42865 16.2593 1.4366 16.2831 1.45163C16.307 1.46667 16.3259 1.48814 16.3377 1.51349L19.9844 9.06106C19.9982 9.08913 20.0026 9.12084 19.9969 9.15155C19.9968 9.15189 19.9968 9.15223 19.9967 9.15257C16.0841 8.35235 12.1997 10.7738 11.2247 14.6865C10.9788 15.6722 10.9404 16.661 11.0818 17.6068L10.1037 18.5304C10.0757 18.5568 10.0384 18.5715 9.99967 18.5715C9.96091 18.5715 9.92365 18.5568 9.89568 18.5304L0.0468105 9.23117C0.023715 9.20979 0.00816806 9.18168 0.00244313 9.15097C-0.00328179 9.12026 0.00111566 9.08855 0.0149924 9.06048Z" fill="#354D70"/>
<path fill-rule="evenodd" clip-rule="evenodd" d="M11.2649 9.83579C11.1942 9.84102 10.8289 9.8625 10.014 9.8625C9.36588 9.8625 8.9057 9.84334 8.74425 9.83579C6.23946 9.72723 4.36986 9.29759 4.36986 8.7832C4.36986 8.2688 6.23946 7.83975 8.74425 7.72944V9.4079C8.90805 9.41952 9.37708 9.4468 10.0252 9.4468C10.803 9.4468 11.1925 9.41487 11.2626 9.40849V7.7306C13.7621 7.84033 15.6276 8.26996 15.6276 8.7832C15.6276 9.29643 13.7627 9.72606 11.2626 9.83521L11.2649 9.83579ZM11.2649 7.55701V6.05504H14.7531V3.76465H5.25605V6.05504H8.74366V7.55643C5.90891 7.68474 3.7771 8.23803 3.7771 8.90106C3.7771 9.56408 5.90891 10.1168 8.74366 10.2457V15.0587H11.2644V10.2439C14.0926 10.1156 16.2209 9.56292 16.2209 8.90048C16.2209 8.23803 14.0944 7.68532 11.2644 7.55643L11.2649 7.55701Z" fill="#7C95B7"/>
<circle cx="18.5" cy="16.5" r="6.5" fill="#354D70"/>
<path d="M21.4981 18.402C21.4111 16.9328 19.4748 16.265 19.2894 16.1964C19.2819 16.1928 19.2819 16.1856 19.2857 16.1784L21.2825 14.2652V14.0594C21.2825 14.0269 21.2522 13.9981 21.2182 13.9981H17.5384V12.8465V12.5L16.1807 12.7707V12.9657H16.2564C16.2564 12.9657 16.5892 12.9657 16.5892 13.2833V13.9944H15.5378C15.5189 13.9944 15.5 14.0125 15.5 14.0305V14.4818H16.593C16.593 14.4818 16.593 14.9619 16.593 15.5214V16.9328C16.593 17.7017 17.1111 18.2359 18.0187 18.1637C18.2116 18.1493 18.3894 18.0771 18.5406 17.9832C18.6087 17.9399 18.6503 17.8713 18.6503 17.7919V17.5501C18.3553 17.7378 18.1057 17.7269 18.1057 17.7269C17.5309 17.7269 17.5422 17.0303 17.5422 17.0303V14.4818H20.1895L18.2835 16.3155C18.2797 16.5574 18.2759 16.7451 18.2759 16.7487C18.2759 16.7559 18.2797 16.7595 18.2872 16.7595C20.0345 17.0411 20.5072 18.1204 20.5072 18.4345C20.5072 18.4345 20.6963 19.9614 19.0966 20.0661C19.0966 20.0661 18.049 20.1094 17.8637 19.7087C17.8561 19.6943 17.8637 19.6798 17.8788 19.6726C18.0528 19.5968 18.17 19.4488 18.17 19.2503C18.17 18.9543 17.9809 18.7124 17.5838 18.7124C17.2624 18.7124 16.9976 18.9543 16.9976 19.2503C16.9976 19.2503 16.8464 20.5354 19.0928 20.4993C21.6569 20.4559 21.4981 18.402 21.4981 18.402Z" fill="#7C95B7"/>
</svg>
