<svg width="30" height="28" viewBox="0 0 30 28" fill="none" xmlns="http://www.w3.org/2000/svg">
<path fill-rule="evenodd" clip-rule="evenodd" d="M0.0179909 10.873L4.39403 1.81588C4.40836 1.78537 4.43133 1.7596 4.46019 1.74168C4.48905 1.72375 4.52255 1.71444 4.55666 1.71486H19.444C19.4779 1.71477 19.5112 1.72431 19.5398 1.74235C19.5683 1.76039 19.5911 1.78616 19.6052 1.81658L23.9812 10.8737C23.9979 10.9073 24.0032 10.9454 23.9963 10.9823C23.9962 10.9827 23.9961 10.9831 23.9961 10.9835C19.3009 10.0232 14.6396 12.9289 13.4696 17.6242C13.1745 18.807 13.1285 19.9936 13.2982 21.1286L12.1244 22.2368C12.0908 22.2685 12.0461 22.2862 11.9996 22.2862C11.9531 22.2862 11.9084 22.2685 11.8748 22.2368L0.0561726 11.0778C0.028458 11.0521 0.00980167 11.0184 0.00293176 10.9816C-0.00393815 10.9447 0.00133879 10.9066 0.0179909 10.873Z" fill="#354D70"/>
<path fill-rule="evenodd" clip-rule="evenodd" d="M13.5179 11.803C13.433 11.8092 12.9947 11.835 12.0168 11.835C11.239 11.835 10.6868 11.812 10.4931 11.803C7.48731 11.6727 5.24378 11.1571 5.24378 10.5398C5.24378 9.92256 7.48731 9.4077 10.4931 9.27533V11.2895C10.6896 11.3034 11.2524 11.3362 12.0302 11.3362C12.9635 11.3362 13.4309 11.2978 13.5151 11.2902V9.27672C16.5144 9.4084 18.753 9.92396 18.753 10.5398C18.753 11.1557 16.5151 11.6713 13.5151 11.8023L13.5179 11.803ZM13.5179 9.06841V7.26605H17.7037V4.51758H6.30721V7.26605H10.4923V9.06771C7.09064 9.22168 4.53247 9.88564 4.53247 10.6813C4.53247 11.4769 7.09064 12.1402 10.4923 12.2948V18.0704H13.5172V12.2927C16.9111 12.1388 19.465 11.4755 19.465 10.6806C19.465 9.88564 16.9132 9.22238 13.5172 9.06771L13.5179 9.06841Z" fill="#7C95B7"/>
<path d="M29.7664 21.6869C28.7245 25.8655 24.4919 28.4085 20.3123 27.3665C16.1345 26.3247 13.5912 22.0923 14.6336 17.9139C15.675 13.7349 19.9076 11.1916 24.086 12.2334C28.2653 13.2752 30.8083 17.5081 29.7664 21.6869Z" fill="#354D70"/>
<path fill-rule="evenodd" clip-rule="evenodd" d="M25.8004 19.8276L25.8001 19.8272L22.2004 14.04L18.6009 19.8268L18.6001 19.8272L18.6005 19.8274L18.6004 19.8276L18.6007 19.8275L22.2001 21.8616V18.2142L22.2001 18.2142V21.8616L25.7998 19.8273L25.8004 19.8276ZM18.6001 20.4947L22.2001 25.4405V22.5642L18.6001 20.4947ZM25.8001 20.4947L22.2001 25.4405V22.5642L25.8001 20.4947Z" fill="#7C95B7"/>
</svg>
