<svg width="20" height="20" viewBox="0 0 20 20" fill="none" xmlns="http://www.w3.org/2000/svg">
<circle cx="10" cy="10" r="10" fill="#0C60FF"/>
<path d="M14.9968 13.3967C14.8518 10.7731 11.6246 9.58062 11.3157 9.45815C11.3031 9.4517 11.3031 9.43881 11.3094 9.42592L14.6375 6.00953V5.6421C14.6375 5.58409 14.5871 5.53252 14.5303 5.53252H8.39739V3.47624V2.85742L6.13457 3.34087V3.68896H6.26063C6.26063 3.68896 6.8153 3.68896 6.8153 4.25621V5.52607H5.06303C5.03152 5.52607 5 5.5583 5 5.59053V6.39629H6.82161C6.82161 6.39629 6.82161 7.25361 6.82161 8.25274V10.7731C6.82161 12.1461 7.68514 13.1001 9.19789 12.9712C9.51935 12.9454 9.8156 12.8165 10.0677 12.6489C10.1812 12.5716 10.2505 12.4491 10.2505 12.3073V11.8754C9.75887 12.2106 9.34286 12.1913 9.34286 12.1913C8.38479 12.1913 8.4037 10.9472 8.4037 10.9472V6.39629H12.8159L9.63911 9.67086C9.63281 10.1027 9.62651 10.4379 9.62651 10.4444C9.62651 10.4573 9.63281 10.4637 9.64541 10.4637C12.5575 10.9665 13.3454 12.8939 13.3454 13.4547C13.3454 13.4547 13.6605 16.1813 10.9943 16.3683C10.9943 16.3683 9.24832 16.4456 8.93946 15.7301C8.92686 15.7043 8.93946 15.6786 8.96468 15.6657C9.25462 15.5303 9.45002 15.266 9.45002 14.9115C9.45002 14.3829 9.13486 13.951 8.47303 13.951C7.93726 13.951 7.49604 14.3829 7.49604 14.9115C7.49604 14.9115 7.24392 17.2063 10.988 17.1418C15.2615 17.0644 14.9968 13.3967 14.9968 13.3967Z" fill="white"/>
</svg>
