<svg width="24" height="24" viewBox="0 0 24 24" fill="none" xmlns="http://www.w3.org/2000/svg">
<path fill-rule="evenodd" clip-rule="evenodd" d="M8.8335 2.50146C8.8335 2.22532 9.05735 2.00146 9.3335 2.00146H14.6668C14.943 2.00146 15.1668 2.22532 15.1668 2.50146C15.1668 2.77761 14.943 3.00146 14.6668 3.00146H9.3335C9.05735 3.00146 8.8335 2.77761 8.8335 2.50146ZM2.5 4.00016C2.5 3.72402 2.72386 3.50016 3 3.50016H21C21.2761 3.50016 21.5 3.72402 21.5 4.00016C21.5 4.27631 21.2761 4.50016 21 4.50016H3C2.72386 4.50016 2.5 4.27631 2.5 4.00016ZM6.50008 7.16618C6.50008 6.89003 6.27622 6.66618 6.00008 6.66618C5.72394 6.66618 5.50008 6.89003 5.50008 7.16618V21.8328V22.3328H6.00008H19.0001H19.5001V21.8328V21.8249V21.8167V21.8082V21.7994V21.7904V21.7811V21.7715V21.7617V21.7515V21.7412V21.7305V21.7196V21.7085V21.6971V21.6854V21.6735V21.6613V21.6488V21.6361V21.6232V21.61V21.5965V21.5828V21.5689V21.5546V21.5402V21.5255V21.5106V21.4954V21.48V21.4643V21.4484V21.4323V21.4159V21.3993V21.3824V21.3653V21.348V21.3305V21.3127V21.2947V21.2765V21.258V21.2393V21.2204V21.2013V21.1819V21.1623V21.1425V21.1225V21.1023V21.0818V21.0611V21.0402V21.0191V20.9978V20.9763V20.9546V20.9326V20.9105V20.8881V20.8656V20.8428V20.8198V20.7967V20.7733V20.7497V20.7259V20.702V20.6778V20.6534V20.6289V20.6041V20.5792V20.5541V20.5287V20.5032V20.4775V20.4516V20.4256V20.3993V20.3729V20.3463V20.3195V20.2925V20.2653V20.238V20.2105V20.1828V20.155V20.1269V20.0987V20.0703V20.0418V20.0131V19.9842V19.9552V19.926V19.8966V19.8671V19.8374V19.8075V19.7775V19.7473V19.717V19.6865V19.6558V19.6251V19.5941V19.563V19.5318V19.5004V19.4688V19.4371V19.4053V19.3733V19.3412V19.3089V19.2765V19.244V19.2113V19.1784V19.1455V19.1124V19.0792V19.0458V19.0123V18.9787V18.9449V18.911V18.877V18.8429V18.8086V18.7742V18.7397V18.7051V18.6703V18.6355V18.6005V18.5654V18.5301V18.4948V18.4594V18.4238V18.3881V18.3523V18.3164V18.2804V18.2443V18.2081V18.1718V18.1353V18.0988V18.0622V18.0254V17.9886V17.9517V17.9147V17.8775V17.8403V17.803V17.7656V17.7281V17.6905V17.6529V17.6151V17.5773V17.5393V17.5013V17.4632V17.425V17.3868V17.3484V17.31V17.2715V17.233V17.1943V17.1556V17.1168V17.0779V17.039V17V16.9609V16.9217V16.8825V16.8432V16.8039V16.7645V16.725V16.6855V16.6459V16.6063V16.5666V16.5268V16.487V16.4471V16.4072V16.3673V16.3272V16.2872V16.247V16.2069V16.1667V16.1264V16.0861V16.0458V16.0054V15.965V15.9245V15.884V15.8435V15.8029V15.7623V15.7216V15.681V15.6403V15.5995V15.5588V15.518V15.4772V15.4363V15.3954V15.3546V15.3136V15.2727V15.2318V15.1908V15.1498V15.1088V15.0678V15.0267V14.9857V14.9446V14.9035V14.8625V14.8214V14.7803V14.7392V14.6981V14.6569V14.6158V14.5747V14.5336V14.4925V14.4514V14.4102V14.3691V14.328V14.2869V14.2458V14.2048V14.1637V14.1226V14.0816V14.0405V13.9995V13.9585V13.9175V13.8765V13.8356V13.7946V13.7537V13.7128V13.672V13.6311V13.5903V13.5495V13.5087V13.468V13.4273V13.3866V13.346V13.3054V13.2648V13.2243V13.1838V13.1433V13.1029V13.0625V13.0221V12.9818V12.9416V12.9014V12.8612V12.8211V12.781V12.741V12.701V12.6611V12.6212V12.5814V12.5416V12.5019V12.4623V12.4227V12.3832V12.3437V12.3043V12.265V12.2257V12.1865V12.1473V12.1082V12.0692V12.0303V11.9914V11.9526V11.9139V11.8752V11.8366V11.7981V11.7597V11.7214V11.6831V11.6449V11.6068V11.5688V11.5309V11.493V11.4552V11.4176V11.38V11.3425V11.3051V11.2678V11.2305V11.1934V11.1564V11.1195V11.0826V11.0459V11.0092V10.9727V10.9363V10.9V10.8637V10.8276V10.7916V10.7557V10.7199V10.6842V10.6486V10.6132V10.5778V10.5426V10.5075V10.4725V10.4376V10.4029V10.3682V10.3337V10.2993V10.265V10.2309V10.1969V10.163V10.1292V10.0956V10.0621V10.0287V9.99548V9.96238V9.92941V9.89658V9.86389V9.83133V9.79892V9.76664V9.73451V9.70252V9.67067V9.63898V9.60742V9.57602V9.54476V9.51366V9.4827V9.4519V9.42125V9.39075V9.36041V9.33023V9.30021V9.27034V9.24064V9.2111V9.18171V9.1525V9.12344V9.09456V9.06584V9.03729V9.0089V8.98069V8.95265V8.92478V8.89709V8.86957V8.84223V8.81506V8.78807V8.76127V8.73464V8.70819V8.68193V8.65585V8.62996V8.60425V8.57873V8.5534V8.52826V8.50331V8.47855V8.45398V8.42961V8.40544V8.38145V8.35767V8.33409V8.31071V8.28752V8.26454V8.24176V8.21919V8.19682V8.17466V8.15271V8.13097V8.10943V8.08811V8.067V8.0461V8.02542V8.00495V7.9847V7.96467V7.94486V7.92526V7.90589V7.88674V7.86782V7.84912V7.83064V7.8124V7.79438V7.77659V7.75903V7.7417V7.7246V7.70774V7.69111V7.67472V7.65857V7.64266V7.62698V7.61155V7.59635V7.5814V7.5667V7.55224V7.53802V7.52405V7.51033V7.49687V7.48365V7.47068V7.45797V7.44551V7.43331V7.42136V7.40967V7.39824V7.38707V7.37616V7.36551V7.35512V7.34501V7.33515V7.32556V7.31624V7.30719V7.29841V7.2899V7.28166V7.2737V7.26601V7.2586V7.25146V7.2446V7.23802V7.23172V7.2257V7.21997V7.21452V7.20935V7.20447V7.19987V7.19557V7.19155V7.18782V7.18439V7.18125V7.1784V7.17585V7.17359V7.17163V7.16997V7.16861V7.16755V7.16679V7.16633C19.5001 7.16623 19.5001 7.16618 19.0001 7.16618H19.5001C19.5001 6.89003 19.2762 6.66618 19.0001 6.66618C18.7239 6.66618 18.5001 6.89003 18.5001 7.16618H19.0001C18.5001 7.16618 18.5001 7.16623 18.5001 7.16633V7.16679V7.16755V7.16861V7.16997V7.17163V7.17359V7.17585V7.1784V7.18125V7.18439V7.18782V7.19155V7.19557V7.19987V7.20447V7.20935V7.21452V7.21997V7.2257V7.23172V7.23802V7.2446V7.25146V7.2586V7.26601V7.2737V7.28166V7.2899V7.29841V7.30719V7.31624V7.32556V7.33515V7.34501V7.35512V7.36551V7.37616V7.38707V7.39824V7.40967V7.42136V7.43331V7.44551V7.45797V7.47068V7.48365V7.49687V7.51033V7.52405V7.53802V7.55224V7.5667V7.5814V7.59635V7.61155V7.62698V7.64266V7.65857V7.67472V7.69111V7.70774V7.7246V7.7417V7.75903V7.77659V7.79438V7.8124V7.83064V7.84912V7.86782V7.88674V7.90589V7.92526V7.94486V7.96467V7.9847V8.00495V8.02542V8.0461V8.067V8.08811V8.10943V8.13097V8.15271V8.17466V8.19682V8.21919V8.24176V8.26454V8.28752V8.31071V8.33409V8.35767V8.38145V8.40544V8.42961V8.45398V8.47855V8.50331V8.52826V8.5534V8.57873V8.60425V8.62996V8.65585V8.68193V8.70819V8.73464V8.76127V8.78807V8.81506V8.84223V8.86957V8.89709V8.92478V8.95265V8.98069V9.0089V9.03729V9.06584V9.09456V9.12344V9.1525V9.18171V9.2111V9.24064V9.27034V9.30021V9.33023V9.36041V9.39075V9.42125V9.4519V9.4827V9.51366V9.54476V9.57602V9.60742V9.63898V9.67067V9.70252V9.73451V9.76664V9.79892V9.83133V9.86389V9.89658V9.92941V9.96238V9.99548V10.0287V10.0621V10.0956V10.1292V10.163V10.1969V10.2309V10.265V10.2993V10.3337V10.3682V10.4029V10.4376V10.4725V10.5075V10.5426V10.5778V10.6132V10.6486V10.6842V10.7199V10.7557V10.7916V10.8276V10.8637V10.9V10.9363V10.9727V11.0092V11.0459V11.0826V11.1195V11.1564V11.1934V11.2305V11.2678V11.3051V11.3425V11.38V11.4176V11.4552V11.493V11.5309V11.5688V11.6068V11.6449V11.6831V11.7214V11.7597V11.7981V11.8366V11.8752V11.9139V11.9526V11.9914V12.0303V12.0692V12.1082V12.1473V12.1865V12.2257V12.265V12.3043V12.3437V12.3832V12.4227V12.4623V12.5019V12.5416V12.5814V12.6212V12.6611V12.701V12.741V12.781V12.8211V12.8612V12.9014V12.9416V12.9818V13.0221V13.0625V13.1029V13.1433V13.1838V13.2243V13.2648V13.3054V13.346V13.3866V13.4273V13.468V13.5087V13.5495V13.5903V13.6311V13.672V13.7128V13.7537V13.7946V13.8356V13.8765V13.9175V13.9585V13.9995V14.0405V14.0816V14.1226V14.1637V14.2048V14.2458V14.2869V14.328V14.3691V14.4102V14.4514V14.4925V14.5336V14.5747V14.6158V14.6569V14.6981V14.7392V14.7803V14.8214V14.8625V14.9035V14.9446V14.9857V15.0267V15.0678V15.1088V15.1498V15.1908V15.2318V15.2727V15.3136V15.3546V15.3954V15.4363V15.4772V15.518V15.5588V15.5995V15.6403V15.681V15.7216V15.7623V15.8029V15.8435V15.884V15.9245V15.965V16.0054V16.0458V16.0861V16.1264V16.1667V16.2069V16.247V16.2872V16.3272V16.3673V16.4072V16.4471V16.487V16.5268V16.5666V16.6063V16.6459V16.6855V16.725V16.7645V16.8039V16.8432V16.8825V16.9217V16.9609V17V17.039V17.0779V17.1168V17.1556V17.1943V17.233V17.2715V17.31V17.3484V17.3868V17.425V17.4632V17.5013V17.5393V17.5773V17.6151V17.6529V17.6905V17.7281V17.7656V17.803V17.8403V17.8775V17.9147V17.9517V17.9886V18.0254V18.0622V18.0988V18.1353V18.1718V18.2081V18.2443V18.2804V18.3164V18.3523V18.3881V18.4238V18.4594V18.4948V18.5301V18.5654V18.6005V18.6355V18.6703V18.7051V18.7397V18.7742V18.8086V18.8429V18.877V18.911V18.9449V18.9787V19.0123V19.0458V19.0792V19.1124V19.1455V19.1784V19.2113V19.244V19.2765V19.3089V19.3412V19.3733V19.4053V19.4371V19.4688V19.5004V19.5318V19.563V19.5941V19.6251V19.6558V19.6865V19.717V19.7473V19.7775V19.8075V19.8374V19.8671V19.8966V19.926V19.9552V19.9842V20.0131V20.0418V20.0703V20.0987V20.1269V20.155V20.1828V20.2105V20.238V20.2653V20.2925V20.3195V20.3463V20.3729V20.3993V20.4256V20.4516V20.4775V20.5032V20.5287V20.5541V20.5792V20.6041V20.6289V20.6534V20.6778V20.702V20.7259V20.7497V20.7733V20.7967V20.8198V20.8428V20.8656V20.8881V20.9105V20.9326V20.9546V20.9763V20.9978V21.0191V21.0402V21.0611V21.0818V21.1023V21.1225V21.1425V21.1623V21.1819V21.2013V21.2204V21.2393V21.258V21.2765V21.2947V21.3127V21.3305V21.3328H6.50008V7.16618Z" fill="#C4DEFF" />
<path fill-rule="evenodd" clip-rule="evenodd" d="M9.5 9C9.77614 9 10 9.22386 10 9.5L10 17.5C10 17.7761 9.77614 18 9.5 18C9.22386 18 9 17.7761 9 17.5L9 9.5C9 9.22386 9.22386 9 9.5 9Z" fill="#C4DEFF" />
<path fill-rule="evenodd" clip-rule="evenodd" d="M12.5 9C12.7761 9 13 9.22386 13 9.5L13 17.5C13 17.7761 12.7761 18 12.5 18C12.2239 18 12 17.7761 12 17.5L12 9.5C12 9.22386 12.2239 9 12.5 9Z" fill="#C4DEFF" />
<path fill-rule="evenodd" clip-rule="evenodd" d="M15.5 9C15.7761 9 16 9.22386 16 9.5L16 17.5C16 17.7761 15.7761 18 15.5 18C15.2239 18 15 17.7761 15 17.5L15 9.5C15 9.22386 15.2239 9 15.5 9Z" fill="#C4DEFF" />
</svg>
