<svg width="16" height="17" viewBox="0 0 16 17" fill="none" xmlns="http://www.w3.org/2000/svg">
<path fill-rule="evenodd" clip-rule="evenodd" d="M1.64645 6.14652C1.45118 6.34178 1.45118 6.65837 1.64645 6.85363C1.84171 7.04889 2.15829 7.04889 2.35355 6.85363L3.5 5.70718L3.5 12.5001V13.0001H4H8.66667C8.94281 13.0001 9.16667 12.7762 9.16667 12.5001C9.16667 12.2239 8.94281 12.0001 8.66667 12.0001H4.5V5.70718L5.64645 6.85363C5.84171 7.04889 6.15829 7.04889 6.35355 6.85363C6.54882 6.65837 6.54882 6.34178 6.35355 6.14652L4.35355 4.14652L4 3.79297L3.64645 4.14652L1.64645 6.14652ZM12.5 4.00008V4.50008L12.5 11.293L13.6464 10.1465C13.8417 9.95126 14.1583 9.95126 14.3536 10.1465C14.5488 10.3418 14.5488 10.6584 14.3536 10.8536L12.3536 12.8536L12 13.2072L11.6464 12.8536L9.64645 10.8536C9.45118 10.6584 9.45118 10.3418 9.64645 10.1465C9.84171 9.95126 10.1583 9.95126 10.3536 10.1465L11.5 11.293L11.5 5.00008L7.33333 5.00008C7.05719 5.00008 6.83333 4.77622 6.83333 4.50008C6.83333 4.22393 7.05719 4.00008 7.33333 4.00008L12 4.00008L12.5 4.00008Z" fill="#C4DEFF" fill-opacity="0.5"/>
</svg>
