<svg width="20" height="20" viewBox="0 0 20 20" fill="none" xmlns="http://www.w3.org/2000/svg">
<path fill-rule="evenodd" clip-rule="evenodd" d="M0.653991 10C0.653991 4.83834 4.83834 0.653991 10 0.653991C15.1617 0.653991 19.346 4.83834 19.346 10C19.346 15.1617 15.1617 19.346 10 19.346C4.83834 19.346 0.653991 15.1617 0.653991 10ZM10 0C4.47715 0 0 4.47715 0 10C0 15.5228 4.47715 20 10 20C15.5228 20 20 15.5228 20 10C20 4.47715 15.5228 0 10 0ZM6.55667 17.4071V15.3101H7.62619V17.4071H6.55667ZM10.5125 15.4013V15.4353C11.5715 15.3385 12.4706 14.9137 13.0667 14.3083C13.738 13.6265 14.0412 12.7052 13.7707 11.6764C13.4829 10.5822 12.6723 10.0699 11.7793 9.9077C11.3276 9.82567 10.8692 9.83838 10.481 9.91376C10.0786 9.9919 9.81198 10.125 9.69557 10.2302L8.92605 9.47222L11.704 6.30266H7.71061L7.71469 12.306C7.71469 12.9937 8.53146 13.3582 9.04399 12.896L9.76858 13.6995C8.56007 14.7893 6.63302 13.931 6.63273 12.3063V12.3062V12.306L6.62865 6.30266H5.19907V5.2207H6.63271V2.63516H7.71467V5.2207H9.55465V2.63516H10.6366V5.2207H12.8974L13.3043 6.11825L10.978 8.77249C11.3004 8.76109 11.6371 8.78222 11.9726 8.84317C13.1637 9.05953 14.3955 9.7981 14.8171 11.4012L14.8171 11.4012C15.1915 12.8251 14.7575 14.1331 13.8378 15.0673C13.022 15.8959 11.8381 16.4212 10.5125 16.5209V17.4071H9.443V15.4013H10.5125Z" fill="#2C7DF7"/>
</svg>
