<svg width="22" height="16" viewBox="0 0 22 16" fill="none" xmlns="http://www.w3.org/2000/svg">
<path fill-rule="evenodd" clip-rule="evenodd" d="M6.71843 1.80686C7.92865 0.982149 9.39149 0.5 10.9654 0.5C15.1354 0.5 18.5159 3.88044 18.5159 8.05041V8.0531L18.5065 9.78636L20.6464 7.64645C20.8417 7.45118 21.1583 7.45118 21.3536 7.64645C21.5488 7.84171 21.5488 8.15829 21.3536 8.35355L18.3536 11.3536L18 11.7071L17.6464 11.3536L14.6464 8.35355C14.4512 8.15829 14.4512 7.84171 14.6464 7.64645C14.8417 7.45118 15.1583 7.45118 15.3536 7.64645L17.5065 9.79934L17.5159 8.05041V8.04917C17.5152 4.43205 14.5827 1.5 10.9654 1.5C9.59867 1.5 8.33104 1.91805 7.28157 2.63322C7.05337 2.78873 6.74232 2.7298 6.58682 2.5016C6.43131 2.27341 6.49024 1.96236 6.71843 1.80686ZM1.35355 8.35355C1.15829 8.54882 0.841709 8.54882 0.646447 8.35355C0.451184 8.15829 0.451184 7.84171 0.646447 7.64645L3.64645 4.64645L4 4.29289L4.35355 4.64645L7.35355 7.64645C7.54882 7.84171 7.54882 8.15829 7.35355 8.35355C7.15829 8.54882 6.84171 8.54882 6.64645 8.35355L4.5 6.20711V8.0144C4.5 11.6321 7.43272 14.5648 11.0504 14.5648C12.4172 14.5648 13.6848 14.1468 14.7343 13.4316C14.9625 13.2761 15.2735 13.335 15.429 13.5632C15.5845 13.7914 15.5256 14.1025 15.2974 14.258C14.0872 15.0827 12.6244 15.5648 11.0504 15.5648C6.88043 15.5648 3.5 12.1844 3.5 8.0144V6.20711L1.35355 8.35355Z" fill="#C4DEFF" fill-opacity="0.5"/>
</svg>
