<svg width="16" height="16" viewBox="0 0 16 16" fill="none" xmlns="http://www.w3.org/2000/svg">
<g id="Notification Statuses">
<path id="Union" fill-rule="evenodd" clip-rule="evenodd" d="M9.29302 3.21213C8.71304 2.22616 7.28719 2.22617 6.70721 3.21213L1.78896 11.5731C1.20076 12.5731 1.92174 13.8337 3.08187 13.8337H12.9184C14.0785 13.8337 14.7995 12.5731 14.2113 11.5731L9.29302 3.21213ZM7.56915 3.71915C7.76247 3.39049 8.23776 3.39049 8.43108 3.71915L13.3493 12.0802C13.5454 12.4135 13.3051 12.8337 12.9184 12.8337H3.08187C2.69516 12.8337 2.45483 12.4135 2.6509 12.0802L7.56915 3.71915ZM8.00012 6.16734C8.27626 6.16734 8.50012 6.3912 8.50012 6.66734V8.66734C8.50012 8.94348 8.27626 9.16734 8.00012 9.16734C7.72397 9.16734 7.50012 8.94348 7.50012 8.66734V6.66734C7.50012 6.3912 7.72397 6.16734 8.00012 6.16734ZM8.00012 11.3337C8.36831 11.3337 8.66678 11.0352 8.66678 10.667C8.66678 10.2988 8.36831 10.0003 8.00012 10.0003C7.63193 10.0003 7.33345 10.2988 7.33345 10.667C7.33345 11.0352 7.63193 11.3337 8.00012 11.3337Z" fill="#FFA800"/>
</g>
</svg>
