<svg width="30" height="28" viewBox="0 0 30 28" fill="none" xmlns="http://www.w3.org/2000/svg">
<path fill-rule="evenodd" clip-rule="evenodd" d="M13.342 7.82413C14.8423 7.96471 16.0285 8.426 16.1603 9.80106C16.2547 10.8071 15.8374 11.4222 15.163 11.7538C15.826 11.9127 16.3407 12.212 16.618 12.7423C15.3864 13.7151 14.4004 15.0148 13.8077 16.553C13.6531 16.5685 13.4942 16.5809 13.3311 16.5907V18.2811C13.3181 18.3561 13.3061 18.4312 13.2951 18.5062H12.1691V16.6061H11.2421V18.515H10.0823V16.5776H7.75171L7.97137 15.1915C7.97137 15.1915 8.83024 15.2047 8.81486 15.1915C8.8689 15.1957 8.92321 15.1889 8.97455 15.1715C9.02589 15.1541 9.07319 15.1266 9.1136 15.0905C9.15478 15.055 9.18844 15.0117 9.21259 14.963C9.23674 14.9144 9.25088 14.8613 9.25418 14.8071V9.588C9.23177 9.43422 9.15055 9.29515 9.02762 9.20009C8.9047 9.10502 8.74967 9.06139 8.5952 9.07838C8.60838 9.06301 7.75171 9.07838 7.75171 9.07838V7.83731H10.1043V5.93066H11.2553V7.78898H12.1822V5.93066H13.342V7.82413ZM11.5045 15.2048C12.454 15.2187 14.5348 15.2491 14.5348 13.9263C14.5348 12.5757 12.5456 12.6197 11.5695 12.6412C11.4581 12.6437 11.36 12.6459 11.2794 12.6457V15.2025C11.3439 15.2025 11.4197 15.2036 11.5045 15.2048ZM11.4791 11.484C12.2748 11.4981 13.9966 11.5287 13.9966 10.3239C13.9966 9.08855 12.3285 9.13194 11.5173 9.15304C11.4269 9.15539 11.3472 9.15746 11.2816 9.15746V11.4815C11.3378 11.4815 11.4044 11.4826 11.4791 11.484Z" fill="#F09242"/>
<path fill-rule="evenodd" clip-rule="evenodd" d="M5.71107 5.09438C7.43064 3.52195 9.6764 2.64995 12.0065 2.64995C14.3366 2.64995 16.5824 3.52195 18.302 5.09438L18.9609 4.4354C17.0641 2.68669 14.5787 1.71582 11.9988 1.71582C9.41893 1.71582 6.93352 2.68669 5.03672 4.4354L5.71107 5.09438ZM19.5695 5.03706L18.9105 5.69603C20.2234 7.13178 21.048 8.93435 21.2845 10.8466C21.5937 10.8149 21.9061 10.7993 22.2207 10.8002C21.9716 8.65224 21.0489 6.62633 19.5695 5.02168V5.03706ZM13.3176 21.252C13.3683 21.5618 13.4352 21.8675 13.5174 22.1681C13.0197 22.2421 12.5145 22.2799 12.0056 22.2799C9.42567 22.2799 6.94026 21.3091 5.04346 19.5603L5.70244 18.9014C7.422 20.4738 9.66776 21.3458 11.9979 21.3458C12.4419 21.3458 12.8828 21.3141 13.3176 21.252ZM2.65247 12.0009C2.65247 14.3295 3.52332 16.5739 5.09389 18.2931L4.43491 18.974C2.6862 17.0772 1.71533 14.5918 1.71533 12.0119C1.71533 9.43202 2.6862 6.94661 4.43491 5.0498L5.09389 5.70878C3.52332 7.42796 2.65247 9.67235 2.65247 12.0009Z" fill="#5A5564"/>
<path fill-rule="evenodd" clip-rule="evenodd" d="M5.33179 21.9767C7.30485 23.2955 9.62462 23.9996 11.9978 24C12.719 24.0001 13.437 23.9353 14.1432 23.8071C13.9984 23.5162 13.8691 23.2174 13.7562 22.9118C12.4667 23.1184 11.1441 23.0961 9.84989 22.8387C7.70544 22.4123 5.73555 21.3596 4.1892 19.8139C2.64285 18.2682 1.58945 16.2987 1.16216 14.1544C0.734858 12.0101 0.952839 9.78732 1.78855 7.7669C2.62426 5.74648 4.04018 4.01917 5.85735 2.80327C7.67453 1.58738 9.81137 0.937492 11.9978 0.935755C13.451 0.9346 14.8902 1.21991 16.2331 1.77537C17.576 2.33082 18.7962 3.14553 19.824 4.17291C20.8518 5.20029 21.667 6.42019 22.223 7.76285C22.6303 8.74653 22.8927 9.78196 23.0036 10.8368C23.3202 10.8656 23.6381 10.9114 23.9562 10.975C23.7836 8.96257 23.1052 7.02023 21.9767 5.33179C20.658 3.35874 18.7838 1.82101 16.5912 0.913031C14.3986 0.00505137 11.986 -0.232404 9.65838 0.230689C7.33082 0.693782 5.19282 1.83663 3.51472 3.51472C1.83663 5.19282 0.693782 7.33082 0.230689 9.65838C-0.232404 11.986 0.00505137 14.3986 0.913031 16.5912C1.82101 18.7838 3.35874 20.658 5.33179 21.9767Z" fill="#282138"/>
<path d="M29.7664 21.6869C28.7245 25.8655 24.4919 28.4085 20.3123 27.3665C16.1345 26.3247 13.5912 22.0923 14.6336 17.9139C15.675 13.7349 19.9076 11.1916 24.086 12.2334C28.2653 13.2752 30.8083 17.5081 29.7664 21.6869Z" fill="#354D70"/>
<path d="M22.1501 22.5926V25.2862L18.7786 20.6544L22.1501 22.5926Z" fill="#EECBC1" stroke="#4B4A85" stroke-width="0.1"/>
<path d="M22.2501 22.5926V25.2862L25.6215 20.6544L22.2501 22.5926Z" fill="#CAB4F5" stroke="#4B4A85" stroke-width="0.1"/>
<path d="M22.2501 21.7757L25.6905 19.8315L22.2501 18.2441V21.7757Z" fill="#C8B2F4" stroke="#4B4A85" stroke-width="0.1"/>
<path d="M22.1501 21.7757L18.7097 19.8315L22.1501 18.2441V21.7757Z" fill="#88AAF1" stroke="#4B4A85" stroke-width="0.1"/>
<path d="M22.2502 18.1817V14.2151L25.6713 19.715L22.2502 18.1817Z" fill="#B6F8F4" stroke="#4B4A85" stroke-width="0.1"/>
<path d="M22.1502 18.1817V14.2151L18.7291 19.715L22.1502 18.1817Z" fill="#EECBC1" stroke="#4B4A85" stroke-width="0.1"/>
</svg>
