<svg width="30" height="28" viewBox="0 0 30 28" fill="none" xmlns="http://www.w3.org/2000/svg">
<path fill-rule="evenodd" clip-rule="evenodd" d="M13.342 7.82413C14.8423 7.96471 16.0285 8.426 16.1603 9.80106C16.2547 10.8071 15.8374 11.4222 15.163 11.7538C15.826 11.9127 16.3407 12.212 16.618 12.7423C15.3864 13.7151 14.4004 15.0148 13.8077 16.553C13.6531 16.5685 13.4942 16.5809 13.3311 16.5907V18.2811C13.3181 18.3561 13.3061 18.4312 13.2951 18.5062H12.1691V16.6061H11.2421V18.515H10.0823V16.5776H7.75171L7.97137 15.1915C7.97137 15.1915 8.83024 15.2047 8.81486 15.1915C8.8689 15.1957 8.92321 15.1889 8.97455 15.1715C9.02589 15.1541 9.07319 15.1266 9.1136 15.0905C9.15478 15.055 9.18844 15.0117 9.21259 14.963C9.23674 14.9144 9.25088 14.8613 9.25418 14.8071V9.588C9.23177 9.43422 9.15055 9.29515 9.02762 9.20009C8.9047 9.10502 8.74967 9.06139 8.5952 9.07838C8.60838 9.06301 7.75171 9.07838 7.75171 9.07838V7.83731H10.1043V5.93066H11.2553V7.78898H12.1822V5.93066H13.342V7.82413ZM11.5045 15.2048C12.454 15.2187 14.5348 15.2491 14.5348 13.9263C14.5348 12.5757 12.5456 12.6197 11.5695 12.6412C11.4581 12.6437 11.36 12.6459 11.2794 12.6457V15.2025C11.3439 15.2025 11.4197 15.2036 11.5045 15.2048ZM11.4791 11.484C12.2748 11.4981 13.9966 11.5287 13.9966 10.3239C13.9966 9.08855 12.3285 9.13194 11.5173 9.15304C11.4269 9.15539 11.3472 9.15746 11.2816 9.15746V11.4815C11.3378 11.4815 11.4044 11.4826 11.4791 11.484Z" fill="#7C95B7"/>
<path fill-rule="evenodd" clip-rule="evenodd" d="M11.9978 24C9.62462 23.9996 7.30485 23.2955 5.33179 21.9767C3.35874 20.658 1.82101 18.7838 0.913031 16.5912C0.00505137 14.3986 -0.232404 11.986 0.230689 9.65838C0.693782 7.33082 1.83663 5.19282 3.51472 3.51472C5.19282 1.83663 7.33082 0.693782 9.65838 0.230689C11.986 -0.232404 14.3986 0.00505137 16.5912 0.913031C18.7838 1.82101 20.658 3.35874 21.9767 5.33179C23.1052 7.02023 23.7836 8.96257 23.9562 10.975C23.6381 10.9114 23.3202 10.8656 23.0036 10.8368C22.8927 9.78196 22.6303 8.74653 22.223 7.76285C21.667 6.42019 20.8518 5.20029 19.824 4.17291C18.7962 3.14553 17.576 2.33082 16.2331 1.77537C14.8902 1.21991 13.451 0.9346 11.9978 0.935755C9.81137 0.937492 7.67453 1.58738 5.85735 2.80327C4.04018 4.01917 2.62426 5.74648 1.78855 7.7669C0.952839 9.78732 0.734858 12.0101 1.16216 14.1544C1.58945 16.2987 2.64285 18.2682 4.1892 19.8139C5.73555 21.3596 7.70544 22.4123 9.84989 22.8387C11.1441 23.0961 12.4667 23.1184 13.7562 22.9118C13.8691 23.2174 13.9984 23.5162 14.1432 23.8071C13.437 23.9353 12.719 24.0001 11.9978 24ZM13.5174 22.1679C13.0197 22.2419 12.5145 22.2797 12.0056 22.2797C9.42567 22.2797 6.94026 21.3089 5.04346 19.5602L5.70244 18.9012C7.422 20.4736 9.66776 21.3456 11.9979 21.3456C12.4419 21.3456 12.8828 21.3139 13.3176 21.2518C13.3683 21.5616 13.4352 21.8673 13.5174 22.1679ZM22.2207 10.8C21.9061 10.7991 21.5937 10.8147 21.2845 10.8464C21.048 8.93415 20.2234 7.13158 18.9105 5.69584L19.5695 5.03686V5.02148C21.0489 6.62614 21.9716 8.65205 22.2207 10.8ZM12.0065 2.64975C9.6764 2.64975 7.43064 3.52175 5.71107 5.09418L5.03672 4.4352C6.93352 2.68649 9.41893 1.71562 11.9988 1.71562C14.5787 1.71562 17.0641 2.68649 18.9609 4.4352L18.302 5.09418C16.5824 3.52175 14.3366 2.64975 12.0065 2.64975ZM5.09389 18.2929C3.52332 16.5737 2.65247 14.3293 2.65247 12.0007C2.65247 9.67216 3.52332 7.42777 5.09389 5.70859L4.43491 5.04961C2.6862 6.94641 1.71533 9.43183 1.71533 12.0117C1.71533 14.5916 2.6862 17.077 4.43491 18.9738L5.09389 18.2929Z" fill="#354D70"/>
<path d="M29.7664 21.6869C28.7245 25.8655 24.4919 28.4085 20.3123 27.3665C16.1345 26.3247 13.5912 22.0923 14.6336 17.9139C15.675 13.7349 19.9076 11.1916 24.086 12.2334C28.2653 13.2752 30.8083 17.5081 29.7664 21.6869Z" fill="#354D70"/>
<path fill-rule="evenodd" clip-rule="evenodd" d="M25.8004 19.8276L25.8001 19.8272L22.2004 14.04L18.6009 19.8268L18.6001 19.8272L18.6005 19.8274L18.6004 19.8276L18.6007 19.8275L22.2001 21.8616V18.2142L22.2001 18.2142V21.8616L25.7998 19.8273L25.8004 19.8276ZM18.6001 20.4947L22.2001 25.4405V22.5642L18.6001 20.4947ZM25.8001 20.4947L22.2001 25.4405V22.5642L25.8001 20.4947Z" fill="#7C95B7"/>
</svg>
