<svg width="20" height="20" viewBox="0 0 20 20" fill="none" xmlns="http://www.w3.org/2000/svg">
<g clip-path="url(#clip0_3591_35159)">
<path d="M16.3079 4.19738L15.7588 4.74653C17.0691 6.1795 17.7958 8.05097 17.7958 9.99273C17.7958 11.9345 17.0691 13.806 15.7588 15.2389L16.3079 15.7881C17.7652 14.2074 18.5743 12.1362 18.5743 9.98633C18.5743 7.83642 17.7652 5.76524 16.3079 4.18457V4.19738Z" fill="#354D70"/>
<path d="M4.75923 4.24515C6.1922 2.93479 8.06367 2.20813 10.0054 2.20813C11.9472 2.20813 13.8187 2.93479 15.2516 4.24515L15.8008 3.696C14.2201 2.23874 12.1489 1.42969 9.99902 1.42969C7.84911 1.42969 5.77793 2.23874 4.19727 3.696L4.75923 4.24515Z" fill="#354D70"/>
<path d="M4.24491 15.2441C2.9361 13.8114 2.21039 11.9411 2.21039 10.0006C2.21039 8.06013 2.9361 6.18981 4.24491 4.75716L3.69576 4.20801C2.2385 5.78868 1.42944 7.85986 1.42944 10.0098C1.42944 12.1597 2.2385 14.2309 3.69576 15.8115L4.24491 15.2441Z" fill="#354D70"/>
<path d="M15.2444 15.751C13.8115 17.0613 11.94 17.788 9.99823 17.788C8.05647 17.788 6.185 17.0613 4.75203 15.751L4.20288 16.3001C5.78355 17.7574 7.85473 18.5664 10.0046 18.5664C12.1545 18.5664 14.2257 17.7574 15.8064 16.3001L15.2444 15.751Z" fill="#354D70"/>
<path d="M13.4669 8.16772C13.357 7.02183 12.3686 6.63742 11.1183 6.52027V4.94238H10.1518V6.49098C9.89739 6.49098 9.63746 6.49098 9.37936 6.49098V4.94238H8.42018V6.53125H6.45972V7.56548C6.45972 7.56548 7.17361 7.55267 7.16263 7.56548C7.29135 7.55132 7.42054 7.58768 7.52298 7.6669C7.62542 7.74612 7.6931 7.86202 7.71178 7.99016V12.3394C7.70903 12.3846 7.69724 12.4288 7.67712 12.4694C7.657 12.5099 7.62895 12.546 7.59462 12.5756C7.56095 12.6056 7.52153 12.6286 7.47875 12.6431C7.43597 12.6576 7.39071 12.6632 7.34568 12.6598C7.35849 12.6707 6.64277 12.6598 6.64277 12.6598L6.45972 13.8148H8.40187V15.4293H9.36838V13.8386H10.1408V15.422H11.1092V13.8258C12.742 13.7269 13.8806 13.3242 14.0233 11.7958C14.1387 10.5657 13.5602 10.0165 12.6358 9.79503C13.1978 9.51862 13.5456 9.00608 13.4669 8.16772ZM12.1123 11.6054C12.1123 12.8062 10.0548 12.6689 9.39949 12.6689V10.5382C10.0548 10.54 12.1123 10.3515 12.1123 11.6054ZM11.6638 8.60337C11.6638 9.70167 9.94681 9.56805 9.40132 9.56805V7.63138C9.94681 7.63138 11.6638 7.45931 11.6638 8.60337Z" fill="#354D70"/>
<path d="M9.99817 20C8.02052 19.9996 6.08737 19.4129 4.44316 18.3139C2.79895 17.215 1.51751 15.6532 0.760859 13.826C0.00420949 11.9988 -0.19367 9.98829 0.192241 8.04865C0.578152 6.10901 1.53052 4.32735 2.92894 2.92894C4.32735 1.53052 6.10901 0.578152 8.04865 0.192241C9.98829 -0.19367 11.9988 0.00420949 13.826 0.760859C15.6532 1.51751 17.215 2.79895 18.3139 4.44316C19.4129 6.08737 19.9996 8.02052 20 9.99817C20.0002 11.3117 19.7417 12.6124 19.2392 13.826C18.7366 15.0396 17.9999 16.1423 17.0711 17.0711C16.1423 17.9999 15.0396 18.7366 13.826 19.2392C12.6124 19.7417 11.3117 20.0002 9.99817 20ZM9.99817 0.779796C8.17614 0.781244 6.39544 1.32282 4.88113 2.33606C3.36682 3.3493 2.18688 4.78874 1.49046 6.47242C0.794033 8.1561 0.612381 10.0085 0.968463 11.7954C1.32454 13.5823 2.20238 15.2235 3.491 16.5116C4.77963 17.7997 6.4212 18.6769 8.20824 19.0323C9.99528 19.3876 11.8476 19.2052 13.531 18.5082C15.2144 17.8111 16.6533 16.6306 17.666 15.1158C18.6786 13.6011 19.2195 11.8202 19.2202 9.99817C19.2207 8.78716 18.9825 7.58792 18.5191 6.46904C18.0558 5.35016 17.3765 4.33358 16.52 3.47743C15.6635 2.62128 14.6467 1.94235 13.5276 1.47947C12.4085 1.01659 11.2092 0.778834 9.99817 0.779796Z" fill="#354D70"/>
</g>
<defs>
<clipPath id="clip0_3591_35159">
<rect width="20" height="20" fill="white"/>
</clipPath>
</defs>
</svg>
